/* XPM */
static char *right1696676283[] = {
/* columns rows colors chars-per-pixel */
"64 64 150 2 ",
"   c None",
".  c #000000",
"X  c #0A0A00",
"o  c #00000E",
"O  c #0F1200",
"+  c #131400",
"@  c #1D1D00",
"#  c #000116",
"$  c #00011B",
"%  c #242400",
"&  c #282700",
"*  c #2B2B00",
"=  c #353400",
"-  c #3C3C00",
";  c #000226",
":  c #00032A",
">  c #000435",
",  c #00043A",
"<  c #07083F",
"1  c #444300",
"2  c #4C4C00",
"3  c #535300",
"4  c #5B5B00",
"5  c #646200",
"6  c #6C6B00",
"7  c #757300",
"8  c #787700",
"9  c #7C7B00",
"0  c #797823",
"q  c #000643",
"w  c #30304C",
"e  c #282A50",
"r  c #3C3D51",
"t  c #363859",
"y  c #3D3D59",
"u  c #464558",
"i  c #4F505F",
"p  c #525357",
"a  c #434462",
"s  c #4D4E69",
"d  c #555564",
"f  c #595A6D",
"g  c #5D5E71",
"h  c #62626C",
"j  c #656575",
"k  c #696972",
"l  c #6D6E79",
"z  c #76767B",
"x  c #797979",
"c  c #807F00",
"v  c #838200",
"b  c #898700",
"n  c #8D8B00",
"m  c #908F00",
"M  c #939200",
"N  c #989706",
"B  c #9C9B00",
"V  c #9D9B0C",
"C  c #A09F00",
"Z  c #A3A200",
"A  c #B4B301",
"S  c #BDBB00",
"D  c #B1B00F",
"F  c #A5A418",
"G  c #A8A718",
"H  c #ABA91C",
"J  c #B3B117",
"K  c #B8B710",
"L  c #B3B11B",
"P  c #B7B622",
"I  c #C0BE00",
"U  c #C4C200",
"Y  c #C9C700",
"T  c #CCCA00",
"R  c #C2C008",
"E  c #CBCA0E",
"W  c #DBD901",
"Q  c #DFDD0E",
"!  c #C3C115",
"~  c #D0CE1D",
"^  c #DBD914",
"/  c #D5D31C",
"(  c #DBDA1E",
")  c #E1DF12",
"_  c #E7E600",
"`  c #EDEB01",
"'  c #F1EF00",
"]  c #F2F000",
"[  c #F9F700",
"{  c #FBF803",
"}  c #F9F70C",
"|  c #FAF80B",
" . c #E3E017",
".. c #E6E31C",
"X. c #E8E71E",
"o. c #F9F714",
"O. c #FBF815",
"+. c #F5F31C",
"@. c #F9F61C",
"#. c #FBF91C",
"$. c #C5C326",
"%. c #CECD27",
"&. c #D0CE29",
"*. c #D4D224",
"=. c #DDDB24",
"-. c #D2D12A",
";. c #DDDB28",
":. c #E1DF26",
">. c #E0DF28",
",. c #E5E326",
"<. c #E8E723",
"1. c #ECEB24",
"2. c #E5E328",
"3. c #F0EE23",
"4. c #F4F222",
"5. c #F8F621",
"6. c #FBF921",
"7. c #757685",
"8. c #7C7C80",
"9. c #7C7D8B",
"0. c #808084",
"q. c #86868C",
"w. c #848591",
"e. c #8C8C93",
"r. c #919193",
"t. c #96969B",
"y. c #9E9E9D",
"u. c #9C9CA0",
"i. c #A1A1A7",
"p. c #A1A1A9",
"a. c #ACACAD",
"s. c #ADADB4",
"d. c #B5B5B4",
"f. c #B8B8B7",
"g. c #B5B5BA",
"h. c #BCBCBB",
"j. c #C1C1BF",
"k. c #BEBEC2",
"l. c #C5C5C4",
"z. c #C9C9C6",
"x. c #C5C5C9",
"c. c #CCCCCC",
"v. c #D5D4D4",
"b. c #DADAD6",
"n. c #DCDCDB",
"m. c #E1E1DF",
"M. c #E5E4E3",
"N. c #E8E8E5",
"B. c #ECECEB",
"V. c #F4F4F3",
/* pixels */
"                                                                                                                                ",
"                                                  v.u.j < . + 3 7 n B Z Z Z B M 8 4 % . >                                       ",
"                                          V.c.9., . 5 Z Y ) 3.4.6.#.#.#.#.#.6.6.5.4.1. .T Z 6 . ;                               ",
"                                      N.p.q . v U <.5.6.o.[ ] ' ` ] ` ] ' ' ] ` ' ] ] [ | #.6.1.T n . :                         ",
"                                  N.e.. 2 A <.#.} ] ' ' ' ' ' ' ] ] ] ] ] ] ] ] ' ] ` ] ' ] ` [ | #.1.S 5 . 7.                  ",
"                                u.. 4 E 4.| ] ] ' ] ] ] ] ] ] ] ] ] ] ] ] ] ] ] ] ] ] ] ] ] ] ` ] ` [ | +./ 7 . w.              ",
"                            z.> @ ! 5.[ ] ' ` ] ] ' ' ] ] ] ' ] ' ] ] ] ] ] ] ] ] ] ] ] ] ] ] ] ] ] ] ` ' [ +.~ 3 .             ",
"                          q.. C 1.[ ' ` ] ] ] ] ] ] ] ] ] ] ] ] ] ] ] ] ' ] ] ] ] ] ] ] ] ] ] ' ] ] ] ] ' ] ] [ 4.A . j         ",
"                      m.< O -.| ] ' ] ] ] ] ] ] ] ] ] ] ] ] ] ] ] ] ] ] ] ] ] ] ] ] ] ] ] ] ] ] ] ] ] ' ] ] ] ' ' | ;.3 o       ",
"                    c.. 8 1.[ ] ' ] ] ] ] ] ] ] ] ] ] ] ] ' ] ] ] ] ] ] ] ] ] ] ] ] ] ] ] ] ] ] ] ] ] ] ] ' ] ] ' ' [ 4.M .     ",
"                  j.. V +.[ ' ] ] ' ] ] ] ] ' ] ] ] ] ' ] ] ] ] ] ] ] ' ] ] ] ] ] ] ] ] ] ] ] ] ] ] ] ] ] ] ] ' ] ' ` ] 6.0 .   ",
"                h.. H o.] ` ] ] ] ] ] ] ] ] ] ] ] ' ] ] ] ] ] ] ] ] ] ] ] ] ] ] ] ] ] ] ] ] ' ] ] ] ] ] ] ] ] ] ] ' [ 3.n . h.  ",
"              c.. H | ' ] ] ] ] ] ] ' ] ] ] ] ' ] ] ] ] ] ] ' ] ] ] ] ] ] ] ] ] ] ] ] ] ] ] ] ] ] ] ] ] ] ' ] ] ' [ ,.3 $ b.    ",
"            n.. V o.] ] ] ] ] ] ] ] ] ] ] ] ] ] ] ] ] ] ] ] ] ] ] ' ] ] ] ` ` ' ] ] ] ] ] ] ] ] ] ' ] ] ' ] ' ' | %.. d         ",
"            , 7 +.] ` ] ] ] ] ] ] ] ] ' ] ] ] ] ] ] ] ] ] ] ] ] ] ] ` ] [ [ [ ' ] ] ] ] ] ] ] ] ] ' ] ' ] ' ] O.J . e.          ",
"          8.. 1.[ ` ] ] ] ] ] ] ] ] ] ] ] ] ] ] ] ] ] ' ] ] ] ] ] ' [ ` T U W ] ] ] ] ] ] ' ] ] ' ] ] ] ` [ 4.n . f.            ",
"        l.. %.[ ' ' ' ] ] ] ] ] ] ] ] ] ] ' ] ] ] ] ] ] ] ] ] ] ' [ Y = . . . n ' ] ' ] ] ] ] ] ] ] ' ' [ ,.3 $ b.              ",
"        > n O.` ] ' ] ] ] ] ] ] ] ] ] ] ] ] ] ] ] ] ] ' ] ] ] ] [ W . . % @ % . B [ ' ] ] ] ] ' ] ' ' { &.. d                   ",
"      a.. ,.[ ` ] ] ] ] ] ] ] ] ] ] ] ] ] ] ] ] ] ] ] ] ] ] ] ' [ A . * . . + . 1 ` ] ] ] ] ] ] ' ] O.L . r.                    ",
"      o Z | ' ] ] ] ] ] ] ] ' ] ] ' ] ] ] ] ] ] ] ] ] ] ] ] ] ` [ S . = X X * . 4 ' ] ' ' ' ] ' [ 3.n . h.                      ",
"    a.. ,.[ ` ] ] ] ' ] ] ] ] ] ] ' ] ] ' ] ] ] ] ] ] ] ] ] ] ` ' ` 4 . . . . . S [ ' ' ] ' ' [ ,.3 # b.                        ",
"    e n o.' ] ] ] ] ] ] ] ] ] ] ] ] ] ] ] ] ] ] ] ] ] ] ] ] ] ] ' ] _ M 2 - 6 U [ ' ' ' ' ] | %.. d                             ",
"    . *.[ ' ] ] ] ] ] ] ] ] ' ] ] ] ] ] ] ] ] ] ] ] ] ] ] ] ] ] ] ' [ [ ` _ ] [ ' ' ' ' ] o.L . r.                              ",
"  t.* 3.] ' ] ] ] ] ] ] ' ] ] ] ] ] ] ] ] ' ] ] ] ] ] ] ] ] ] ] ' ' ' ' ] [ ' ' ' ' ' [ 3.n . h.                                ",
"  y M O.` ] ] ] ] ] ] ] ] ] ] ] ] ] ] ] ] ] ] ] ] ] ] ] ' ] ] ] ] ] ] ] ' ' ' ] ' ' [ ,.3 # b.                                  ",
"  . R | ' ] ] ] ] ] ] ] ] ] ] ] ] ] ] ' ' ] ] ] ] ] ] ' ] ] ] ] ] ] ] ] ' ' ] ] ' [ &.. d                                       ",
"  . =.[ ' ] ] ] ] ] ] ] ] ] ] ] ] ] ] ] ] ] ] ] ] ] ] ] ] ] ] ] ] ] ] ] ] ] ' ] O.L . r.                                        ",
"  . 1.] ' ] ] ] ' ] ] ] ' ] ] ] ] ] ] ] ] ] ] ] ] ] ] ] ] ] ] ] ] ] ' ] ] ' ] 4.n . h.                                          ",
"  2 4.] ' ] ] ] ] ] ] ] ] ] ] ] ] ] ] ] ' ] ] ] ] ] ] ] ' ] ] ] ] ] ] ' ' [ ,.3 $                                               ",
"  6 5.' ' ] ] ] ] ] ] ' ] ] ] ] ' ] ] ] ] ] ' ] ' ] ] ] ] ] ' ] ] ] ' ] { E . d                                                 ",
"  8 +.' ] ] ] ] ] ] ] ] ] ] ' ] ] ] ] ] ] ] ] ] ] ] ] ] ] ] ] ] ] ' ' ' D . t.                                                  ",
"  9 @.' ] ] ] ] ] ] ] ] ] ] ] ] ] ] ] ] ] ] ] ] ] ] ] ] ] ] ] ] ] ' [ ^ . p                                                     ",
"  6 +.] ] ] ] ] ] ] ] ] ] ] ' ] ' ] ] ] ] ] ] ] ] ] ' ] ] ] ] ] ] ] ' [ / . 0.                                                  ",
"  5 6.] ] ] ] ] ] ] ] ] ] ] ] ] ] ] ] ] ] ] ] ' ] ] ] ] ' ] ] ] ] ] ] ' [ / . z                                                 ",
"  1 4.` ' ] ] ] ] ] ] ' ] ] ] ] ] ] ] ] ] ] ] ] ] ] ] ] ] ] ] ] ] ] ] ] ' [ ;.. k                                               ",
"  . 1.] ' ] ] ] ] ] ] ] ] ] ] ] ] ] ] ] ' ] ] ] ] ] ] ] ] ] ] ' ] ' ] ' ' ' [ ;.. h                                             ",
"  . / | ] ] ] ] ' ] ] ] ] ] ] ] ] ] ] ] ] ] ] ] ] ] ] ] ] ] ] ] ] ] ] ] ] ] ' [ >.. i                                           ",
"  # A | ` ] ] ] ] ] ] ] ' ] ] ] ] ] ] ' ] ' ] ] ] ' ] ] ] ] ] ] ] ] ' ] ] ] ' ' [ 2.@ u                                         ",
"  g 9 #.] ] ' ] ] ' ] ] ] ] ] ] ] ] ] ] ] ] ] ] ] ' ] ] ] ] ] ] ] ] ] ] ] ' ' ' ' [ <.= w                                       ",
"  a.. <.] ' ] ] ] ] ] ] ] ] ] ] ] ] ] ] ] ] ] ] ] ] ] ] ] ' ] ] ] ] ] ] ] ] ] ] ' ' [ 1.2 q                                     ",
"    . ! [ ] ] ] ] ] ] ] ' ] ] ] ] ' ] ] ] ] ] ] ] ] ] ] ] ] ] ] ] ] ' ] ] ] ] ] ' ] ' [ 1.3 >                                   ",
"    k 6 +.] ] ' ] ] ] ] ] ] ' ] ] ] ' ] ] ] ] ] ] ] ] ] ] ] ] ] ] ] ] ] ] ] ] ] ] ' ' ' [ 3.5 $                                 ",
"    z.. *.[ ' ] ' ] ] ] ] ] ] ] ] ] ] ] ] ] ' ] ] ] ] ] ] ] ] ] ] ] ] ] ] ' ] ] ] ] ' ' ' ] 3.6 o                               ",
"      y 9 #.` ] ] ] ] ] ] ] ] ] ] ] ] ] ] ] ] ] ] ] ] ] ] ] ] ] ] ] ] ] ] ] ] ] ] ] ] ' ] ' ] +.8 .                             ",
"      z.. *.[ ` ] ] ' ] ] ] ] ' ' ] ] ] ] ' ] ] ] ] ] ] ] ] ] ] ] ' ' ] ] ] ] ] ] ] ] ] ] ] ' ] +.c .                           ",
"        k 3 +.] ] ] ] ] ] ] ] ] ] ] ] ] ] ] ] ] ] ] ] ] ] ' ] ] ] ] ] ] ] ] ] ] ] ] ] ] ] ] ] ' ] @.b .                         ",
"        M.. F | ] ] ] ' ] ] ] ] ] ] ] ] ] ] ] ] ] ] ] ] ] ] ] ] ] ] ] ] ] ] ] ] ] ' ] ] ' ] ] ] ' ' @.m .                       ",
"          d.. -.[ ` ] ] ] ] ] ] ] ] ] ] ' ] ] ] ` ] ] ] ] ] ] ] ] ] ] ] ] ] ] ' ] ] ] ] ] ] ] ] ] ' ' O.N .                     ",
"            8.. 2.[ ] ] ' ] ] ] ] ] ] ] ] ] ] ] ] ] ] ] ] ' ] ] ] ] ] ] ' ] ] ] ] ] ] ] ' ] ] ] ] ] ' ] O.V .                   ",
"              r 2 3.] ' ] ] ] ] ] ] ] ] ] ] ] ] ] ] ] ] ] ] ] ] ] ] ' ] ] ] ] ] ] ] ' ] ] ] ] ] ] ] ] ' ] o.F . l.              ",
"                ; 5 4.] ' ' ] ] ] ] ] ] ] ] ] ] ] ] ] ] ] ] ] ] ] ] ] ] ] ] ] ] ] ] ] ] ] ] ] ] ] ] ] ] ' ' | H . h.            ",
"                N.$ 5 1.[ ' ] ] ] ' ] ] ] ] ` ] ] ] ] ] ] ] ] ] ] ] ] ] ] ] ] ] ] ] ] ] ] ] ] ] ] ] ' ] ] ' ' | L . d.          ",
"                  N., 1 2.[ ' ' ] ] ] ] ] ] ] ] ] ] ] ] ] ' ' ] ] ] ' ] ] ] ] ] ] ] ' ] ] ] ] ] ] ' ] ] ] ] ' ' | P . a.        ",
"                      d . %.| ' ] ] ] ] ] ] ] ' ] ] ] ] ] ] ] ] ] ] ] ] ] ] ' ] ] ] ] ] ] ] ' ] ] ] ] ] ' ] ] ] ' [ $.. y.      ",
"                        r.. Z 4.[ ` ] ] ] ] ] ] ] ] ] ] ] ] ] ] ] ] ] ] ] ] ] ' ] ] ] ] ] ] ] ] ] ] ] ] ] ] ' ' [ +.K . x       ",
"                          z.o 1 *.+.[ ] ` ] ] ] ] ] ] ] ] ] ] ] ] ] ] ] ] ] ] ] ] ] ] ] ] ] ] ' ' ' ] ] ' ' ] O.;.5 . f.        ",
"                            B.q.. v :.#.[ ` ' ' ] ] ] ] ' ] ] ] ] ' ] ] ] ] ] ] ] ] ] ] ] ] ] ] ] ] ] ` [ O.<.M . l             ",
"                                b.g . n ( @.| ] ' ' ' ' ] ] ] ] ] ' ' ] ' ] ] ] ' ] ] ] ] ' ' ' ` ] | @.:.B . t c.              ",
"                                    c.g . 6 U 1.5.} ] ] ' ' ` ' ' ] ] ] ' ' ' ' ' ] ] ` ` ] [ } #.3.T 9 . a l.                  ",
"                                        n.e.: . v I ..4.5.O.} [ ] ] ] ] ' ] ] ] ] [ | O.6.4.<.U n O . 9.v.                      ",
"                                            V.x.w.q . 1 b A T Q X.1.4.4.5.3.4.3.X.) T S M 3 . > 7.k.                            ",
"                                                    n.g.w.s , . . * - 2 3 2 1 * . . : a 9.s.                                    ",
"                                                                  c.x.k.k.k.x.                                                  ",
"                                                                                                                                "
};
