/* XPM */
static char *up1696676283[] = {
/* columns rows colors chars-per-pixel */
"64 64 158 2 ",
"   c None",
".  c #000000",
"X  c #0B0600",
"o  c #0C0D00",
"O  c #131300",
"+  c #171800",
"@  c #1B1B00",
"#  c #1A1914",
"$  c #211F00",
"%  c #242400",
"&  c #292500",
"*  c #2C2B00",
"=  c #3B3A00",
"-  c #2D2C10",
";  c #010122",
":  c #000029",
">  c #000035",
",  c #000038",
"<  c #2D2C36",
"1  c #2B2C3D",
"2  c #36343D",
"3  c #403F00",
"4  c #464502",
"5  c #4C4B00",
"6  c #4C4B0D",
"7  c #545300",
"8  c #5D5C03",
"9  c #51500B",
"0  c #4B4A17",
"q  c #444313",
"w  c #605E00",
"e  c #646200",
"r  c #6B6A00",
"t  c #747301",
"y  c #787600",
"u  c #7C7B00",
"i  c #4B4B24",
"p  c #4F4F34",
"a  c #4D4D3E",
"s  c #000042",
"d  c #0E104B",
"f  c #2C2D4F",
"g  c #3E3E46",
"h  c #44445C",
"j  c #4D4D65",
"k  c #5F5F67",
"l  c #58586C",
"z  c #575770",
"x  c #5C5C73",
"c  c #5F5F79",
"v  c #6B6B6A",
"b  c #6D6D7C",
"n  c #70707D",
"m  c #807F00",
"M  c #848300",
"N  c #8C8B01",
"B  c #918F00",
"V  c #959400",
"C  c #9D9B00",
"Z  c #95940A",
"A  c #9D9B1C",
"S  c #A19F00",
"D  c #A4A300",
"F  c #A9A700",
"G  c #ADAC00",
"H  c #B1AF00",
"J  c #B2B101",
"K  c #B9B700",
"L  c #BBB900",
"P  c #B9B70A",
"I  c #BDBB0A",
"U  c #A5A411",
"Y  c #A2A11B",
"T  c #B1AF21",
"R  c #BFBD20",
"E  c #C0BE2E",
"W  c #C4C201",
"Q  c #C9C706",
"!  c #CCCA00",
"~  c #C9C70E",
"^  c #D0CF00",
"/  c #D3D200",
"(  c #D9D701",
")  c #DEDC00",
"_  c #D2D008",
"`  c #D8D60B",
"'  c #DFDD0A",
"]  c #C9C810",
"[  c #C6C418",
"{  c #CFCD19",
"}  c #D0CE18",
"|  c #D6D413",
" . c #DFDD15",
".. c #D7D51D",
"X. c #D9D71E",
"o. c #DDDB19",
"O. c #E0DE00",
"+. c #E1DF1A",
"@. c #E4E202",
"#. c #E8E601",
"$. c #EFEE00",
"%. c #E3E10A",
"&. c #ECEB0A",
"*. c #F1EF00",
"=. c #F2F000",
"-. c #F9F601",
";. c #FAF801",
":. c #F6F40B",
">. c #F9F709",
",. c #FBF90C",
"<. c #EDEB12",
"1. c #E4E21B",
"2. c #E9E71F",
"3. c #EDEC1E",
"4. c #F0EE14",
"5. c #F1EF1C",
"6. c #F4F212",
"7. c #F9F714",
"8. c #FBF913",
"9. c #F5F31C",
"0. c #F9F71A",
"q. c #FBF91A",
"w. c #C3C123",
"e. c #C8C623",
"r. c #CAC829",
"t. c #D9D722",
"y. c #D2D02B",
"u. c #D8D72A",
"i. c #DDDB2A",
"p. c #E5E324",
"a. c #E9E722",
"s. c #EDEC23",
"d. c #EDEC29",
"f. c #F0EE22",
"g. c #F4F222",
"h. c #F8F622",
"j. c #F9F821",
"k. c #747582",
"l. c #77778D",
"z. c #7B7B8A",
"x. c #82828A",
"c. c #878793",
"v. c #8D8E94",
"b. c #8A8A9A",
"n. c #959592",
"m. c #959599",
"M. c #9D9DA5",
"N. c #ACACA8",
"B. c #A4A4A2",
"V. c #B1B1B4",
"C. c #B5B6BD",
"Z. c #BEBEC1",
"A. c #C7C7C6",
"S. c #C9C9CA",
"D. c #C4C4C9",
"F. c #D0CFCD",
"G. c #D5D5D7",
"H. c #EAEAE8",
/* pixels */
"                                                                                                                                ",
"                                                                                                                                ",
"                                                                                                                                ",
"                                                                                                      v g                       ",
"                                                                                                    x.u e b                     ",
"                      v                                                                           V.@ 2.s..                     ",
"                      = 7                                                                         . } >.-.} :                   ",
"                    < W s.4                                                                     . G ,.*.$.0.C b                 ",
"                  z.y 9.-.+.4                                                                 z u q.=.*.=.=.d.*                 ",
"                  :  .:.$.-.o.*                                                             b.& f.=.*.=.=.*.8.I s               ",
"                x.C 0.*.=.$.;.t..                                                           . i.>.*.=.=.=.*.=.g.t               ",
"                . 1.:.*.=.=.$.;.y..                                                       . [ 8.*.=.=.=.=.=.$.,.W ,             ",
"              c.V h.*.*.=.=.=.$.-.r..                                                   s U q.*.*.=.=.=.*.=.*.=.5.e             ",
"              , _ 8.*.=.=.=.=.=.*.,.w..                                                 u g.=.*.=.=.=.=.=.=.=.$.8.G             ",
"            C.r g.=.*.=.=.=.=.=.*.*.,.P                                               5 a.-.$.=.=.*.=.=.=.=.=.$.-.@.i           ",
"            l.D q.$.=.=.=.=.=.=.=.*.*.,.J                                           O ..;.$.*.=.=.=.=.=.=.=.=.=.*.7.y           ",
"            # ( -.$.=.=.=.=.=.=.=.=.=.*.8.F                                       1 L ,.*.=.=.=.=.=.=.=.=.=.=.=.$.,.L           ",
"            e 5.=.*.=.=.=.=.=.=.=.=.=.*.=.7.U                                     V 0.*.=.=.=.=.=.=.=.=.=.=.=.=.$.-.O.          ",
"          b.N q.$.=.=.=.=.=.=.=.=.=.=.=.=.=.0.A                                 r s.=.=.=.=.=.=.=.=.=.=.*.=.=.=.=.=.6.7         ",
"          x L ,.$.*.=.=.=.=.=.=.=.=.=.*.=.=.=.9.N                             % 1.-.*.=.=.*.=.=.=.=.*.=.=.=.=.=.=.*.h.N         ",
"          a ( -.$.=.=.=.=.=.=.=.=.=.=.=.=.=.$.=.9.y                         . ] >.$.=.=.=.=.=.=.=.=.=.=.=.=.=.=.=.*.q.L         ",
"          0 #.=.*.=.=.=.=.*.=.=.*.=.=.=.=.=.=.*.=.g.e                       F ,.$.=.*.*.*.*.=.=.=.=.=.=.=.=.=.=.=.*.0.!         ",
"          6 6.=.*.=.=.=.=.=.=.=.=.=.=.=.=.=.=.=.*.=.s.8                   u 0.*.*.*.*.-.-.=.*.=.=.=.=.=.=.=.*.=.=.*.:.)         ",
"          t 7.=.=.=.=.=.=.=.=.=.=.=.=.=.=.=.=.=.=.*.-.s.7               X d.=.*.*.=.-.! H ) -.=.=.=.=.*.=.=.=.=.=.*.:.<.        ",
"          M q.*.=.=.=.=.*.=.=.=.=.=.=.=.=.=.=.=.=.=.$.-.a.7             i.-.*.*.*.-.S . O . W ;.*.=.=.=.=.=.=.*.=.*.:.<.8       ",
"          V q.=.=.=.=.=.=.=.=.=.=.=.=.=.=.=.=.=.=.*.=.$.-.1.5         E 8.*.*.$.-./ % o * o 5 #.=.=.=.=.=.=.=.=.=.*.=.9.e       ",
"          C 7.$.=.=.=.=.=.=.=.=.=.=.=.*.=.=.=.=.=.=.=.=.$.-. .q     C q.*.*.=.*.;.F . + . @ . / -.=.=.*.=.=.=.=.=.=.=.g.r       ",
"          D 8.$.*.=.=.=.=.=.=.=.=.=.=.=.=.*.=.=.=.*.=.=.=.$.;.o.  t 4.=.*.=.=.$.;.D . + . @ . / -.*.=.=.=.=.=.=.=.*.=.9.y       ",
"          D q.=.=.=.*.=.=.=.=.=.=.=.=.=.=.=.=.=.=.=.=.=.=.=.$.-...O.-.$.=.=.=.$.;.! @ @ * + = #.=.=.=.=.=.=.=.=.=.*.=.g.r       ",
"          V 7.$.=.=.=.=.=.=.=.*.=.=.=.=.=.=.=.=.=.=.=.=.=.=.=.$.-.=.*.=.=.=.=.*.=.-.V . @ . L -.=.=.=.=.=.=.=.=.=.*.=.g.e       ",
"          N 7.$.=.=.=.=.=.=.=.=.=.*.=.=.=.=.=.=.=.=.=.=.=.=.=.=.*.*.=.=.*.=.=.=.*.=.*.W S / -.*.*.=.=.=.=.=.=.=.=.*.=.4.e       ",
"          u 7.*.=.=.=.=.=.=.=.=.=.=.=.=.=.*.=.=.=.=.=.*.=.=.*.=.=.*.=.=.=.=.=.=.=.*.*.-.-.-.*.=.=.=.=.=.=.=.=.=.=.*.:.3.4       ",
"          8 6.=.*.=.=.=.=.=.=.=.=.=.=.=.=.=.=.=.=.=.=.=.=.=.=.*.=.=.=.=.=.=.*.=.*.=.=.*.*.$.=.=.=.=.=.=.*.=.=.=.=.*.:.@.g       ",
"          6 &.=.*.=.=.=.=.=.=.*.*.=.=.=.=.=.=.=.=.=.=.=.=.=.=.=.=.=.=.=.=.=.=.=.=.=.=.=.=.*.=.=.*.=.=.=.=.=.=.=.=.*.7./         ",
"          p O.-.*.=.*.=.=.=.=.=.=.=.=.=.*.=.=.=.=.=.=.*.=.=.=.=.=.=.=.=.=.=.=.=.=.=.=.=.=.=.=.=.=.=.=.=.=.=.=.=.=.*.q.W         ",
"          j W ,.*.=.=.=.=.=.=.=.=.=.=.=.=.=.=.=.=.=.=.=.=.=.=.=.=.*.=.=.=.=.=.=.=.=.=.=.=.=.=.=.*.=.=.=.=.=.=.=.=.*.q.S         ",
"          l.C 8.$.=.=.=.=.=.=.=.=.=.=.=.=.=.=.=.=.=.=.=.=.=.=.=.=.=.=.=.=.=.=.=.=.*.=.=.=.=.=.=.=.=.=.=.=.=.=.=.=.*.9.r         ",
"          C.r 0.=.*.=.=.=.=.=.=.=.=.=.=.=.=.=.*.=.*.=.=.=.=.=.=.=.=.=.=.=.*.=.=.=.=.=.=.=.=.=.=.=.=.*.=.=.=.=.=.*.=.#.<         ",
"            3 %.-.$.=.*.*.=.=.=.=.=.=.*.=.=.=.=.=.=.=.=.=.*.=.=.=.=.=.=.=.=.=.=.=.=.=.=.=.*.=.=.=.=.=.=.=.=.=.*.*.>.!           ",
"            x K q.*.=.=.=.=.=.=.=.=.=.=.=.=.=.*.=.=.=.=.=.=.=.=.*.=.*.=.=.=.=.=.=.=.=.=.=.=.=.=.=.=.=.=.=.=.=.=.*.7.B           ",
"            M.M 0.*.*.=.=.=.=.=.=.=.=.=.=.=.=.*.=.*.=.=.=.=.=.=.=.=.=.=.=.=.=.=.=.=.=.=.=.=.=.*.=.=.=.=.=.=.=.=.=.4.6           ",
"            G.. +.>.*.=.=.=.=.=.=.=.=.=.=.=.=.=.=.=.=.=.=.=.=.=.=.=.=.=.=.*.=.=.=.=.=.*.=.=.=.=.=.=.=.=.=.=.=.$.;.W             ",
"              b G j.*.=.=.*.=.=.=.*.=.=.=.=.=.=.=.=.=.=.=.=.=.=.=.*.=.=.=.=.=.=.=.=.=.=.=.=.=.*.=.=.*.=.=.=.*.*.q.t             ",
"              Z.& f.=.*.=.=.=.=.=.=.=.=.=.=.=.=.=.=.=.=.=.=.*.=.=.=.=.=.=.=.=.=.=.=.=.=.=.=.=.=.=.=.=.=.=.=.$.;.` +             ",
"                x L 0.*.=.=.=.=.=.=.=.=.=.=.*.=.=.=.*.=.=.=.=.=.=.=.=.=.=.=.=.=.=.=.=.=.=.=.=.=.*.=.=.=.=.*.*.j.N               ",
"                Z.@ 3.=.*.=.=.=.=.=.=.=.=.=.=.=.=.=.=.=.=.=.=.=.=.=.=.=.=.=.=.=.=.=.=.=.=.*.=.=.=.=.=.=.=.*.>.X..               ",
"                  k F 8.*.=.=.=.=.=.*.=.=.=.=.=.=.=.=.=.=.=.=.=.=.=.=.*.=.=.=.=.*.=.=.=.=.=.=.=.*.=.=.=.*.=.h.m M.              ",
"                  S.-  .-.$.=.*.=.=.=.=.=.=.=.=.=.=.=.=.=.*.=.*.=.=.=.=.=.=.=.*.=.=.=.=.=.=.=.=.=.=.=.=.$.q.W d                 ",
"                    l.e 9.=.*.=.*.=.=.=.=.=.=.=.=.=.=.=.=.=.=.=.=.=.=.*.=.=.=.=.=.=.=.=.=.=.=.=.=.=.=.*.-.p..                   ",
"                    H.: F 8.$.*.=.=.=.=.=.=.=.=.=.=.*.=.=.=.=.=.=.=.=.=.=.=.*.=.=.=.=.=.=.=.=.*.=.=.*.=.h.r k.                  ",
"                      F.. e.,.*.=.=.=.=.=.=.=.=.=.=.=.=.=.=.*.=.=.=.=.=.=.=.=.=.=.=.=.*.=.=.=.=.=.=.$.q.D 1                     ",
"                        N.. u.;.$.=.=.=.=.=.*.=.=.=.=.=.=.=.=.=.=.=.=.=.=.=.=.=.=.=.=.=.=.=.=.=.*.*.,.P .                       ",
"                          n.. i.;.*.*.=.=.=.=.=.=.=.=.=.=.=.=.=.=.*.=.=.=.=.=.=.=.=.=.=.=.=.=.*.$.,.w..                         ",
"                            x.. i.;.*.*.=.=.=.=.=.=.=.=.*.=.=.=.=.=.=.=.=.*.=.=.*.=.=.=.=.=.*.*.,.E .                           ",
"                              v.o ~ ,.*.$.=.=.=.=.=.=.=.=.=.=.=.=.=.=.=.=.=.=.=.=.=.=.=.=.$.-.7.T .                             ",
"                                B.. Y 9.-.$.*.=.*.=.=.=.=.=.=.=.=.=.=.=.=.=.=.=.=.=.*.*.*.-.s.u ;                               ",
"                                  A., r t.,.=.=.*.=.=.=.=.=.=.=.=.*.=.=.=.=.=.=.=.*.*.-.9.[ = h                                 ",
"                                      n . Z 1.8.-.=.*.$.*.*.=.=.=.=.=.=.*.*.*.*.=.;.0...y . m.                                  ",
"                                        A.f . N ` f.7.-.=.=.*.*.*.=.*.*.=.=.-.7.s.Q y . k.                                      ",
"                                            Z.x . 4 C ! 1.g.9.0.0.7.0.9.3.o.W N * . k.                                          ",
"                                                  M.j . . $ w y u M t 7 + . ; z                                                 ",
"                                                                                                                                ",
"                                                                                                                                ",
"                                                                                                                                "
};
