/* XPM */
static char *coinphotoAid_removed_background__1_1696679632[] = {
/* columns rows colors chars-per-pixel */
"64 64 95 2 ",
"   c None",
".  c #BEBD00",
"X  c #BAB90D",
"o  c #B7B71F",
"O  c #B4B32C",
"+  c #AFAE37",
"@  c #AEAD3E",
"#  c #BDBC3A",
"$  c #C6C500",
"%  c #CAC900",
"&  c #CBCA00",
"*  c #CECD00",
"=  c #D6D500",
"-  c #DAD900",
";  c #DFDE00",
":  c #DFDE04",
">  c #DDDC0A",
",  c #DFDE0F",
"<  c #C6C51E",
"1  c #D1D011",
"2  c #D1D019",
"3  c #E2E100",
"4  c #E4E30F",
"5  c #E8E708",
"6  c #E9E80B",
"7  c #E3E211",
"8  c #EAE911",
"9  c #EBEA16",
"0  c #ECEB18",
"q  c #ECEB19",
"w  c #EDEC1B",
"e  c #EDEC1C",
"r  c #EDEC1D",
"t  c #EFEE1E",
"y  c #C4C323",
"u  c #D0CF21",
"i  c #EFEE20",
"p  c #F2F123",
"a  c #F2F124",
"s  c #F1F026",
"d  c #F2F126",
"f  c #F2F12B",
"g  c #F7F630",
"h  c #F7F631",
"j  c #F8F732",
"k  c #AAAA4B",
"l  c #B5B441",
"z  c #B1B144",
"x  c #AEAD51",
"c  c #ADAC58",
"v  c #B4B354",
"b  c #B4B458",
"n  c #A4A366",
"m  c #AFAE67",
"M  c #A7A66C",
"N  c #A9A969",
"B  c #FFFF44",
"V  c #FFFF45",
"C  c #FFFF47",
"Z  c #FFFF49",
"A  c #FFFF4A",
"S  c #FFFF4C",
"D  c #FFFF4F",
"F  c #FFFF51",
"G  c #FDFC53",
"H  c #FFFF52",
"J  c #FFFF53",
"K  c #FDFC54",
"L  c #FDFD54",
"P  c #FDFC55",
"I  c #FEFD54",
"U  c #FEFD55",
"Y  c #FFFE54",
"T  c #FFFE55",
"R  c #FFFF55",
"E  c #FDFC56",
"W  c #FDFC57",
"Q  c #FEFD57",
"!  c #FFFF56",
"~  c #FFFF57",
"^  c #FDFC58",
"/  c #FEFD58",
"(  c #FEFD59",
")  c #FFFF58",
"_  c #FFFF59",
"`  c #FEFD5A",
"'  c #FFFF5B",
"]  c #FFFE5C",
"[  c #FFFF5C",
"{  c #FFFF5D",
"}  c #FFFF5E",
"|  c #FFFF5F",
" . c #FFFF60",
".. c #FFFF61",
"X. c #B0B0AD",
/* pixels */
"                                                                                                                                ",
"                                                                                                                                ",
"                                                                                                                                ",
"                                                                                                                                ",
"                                                                                                                                ",
"                                                                                                                                ",
"                                                                                                                                ",
"                                                                                                                                ",
"                                                                                                                                ",
"                                                                                                                                ",
"                                                                                                                                ",
"                                                                                                                                ",
"                                                                                                                                ",
"                                                                                                                                ",
"                                                                                                                                ",
"                                                                                                                                ",
"                                                                                                                                ",
"                                                                                                                                ",
"                                                                                                                                ",
"                                                                                                                                ",
"                                                        m 1 7 9 q 8 u v                                                         ",
"                                                    M 3 A { { { { { ' G 6 c                                                     ",
"                                                  X B ..^ U U U U U G R { G $                                                   ",
"                                                O R ] G R U R U R R R R R ' { &                                                 ",
"                                              n B { G R U R U R U R U R U R ^ G k                                               ",
"                                              ; ..G R R R U R U R U R U R U R { 5 X.                                            ",
"                                            N A ^ U R R U R U R U R U R U R R ^ G x                                             ",
"                                            y { U R U R R U R U R U R U R U U U ..-                                             ",
"                                            4 { G R U R U R U R U R U R U R U G { i                                             ",
"                                            e { U R R U R U R U R U R U R U R U { j                                             ",
"                                            q { U R U R U R U R U R U R U R R G { f                                             ",
"                                            w { U U R U R U R U R U R U R U R U ' j                                             ",
"                                            , { G U R U R U R U U R U R U R U G { f                                             ",
"                                            y { U R U R U R U R R U R U R U R U { =                                             ",
"                                              B U R R U R U R U U R U R U R U U R l                                             ",
"                                              > ..U U R U R U R R U R U R U U { f                                               ",
"                                                Z ^ U R R U R U R U R U U U U ' +                                               ",
"                                                o U ^ U R R U R U R U R U U ..%                                                 ",
"                                                  . R { R R G G U G R U { R *                                                   ",
"                                                    z e G { { { { { { ' d z                                                     ",
"                                                        b 2 q d p e : #                                                         ",
"                                                                                                                                ",
"                                                                                                                                ",
"                                                                                                                                ",
"                                                                                                                                ",
"                                                                                                                                ",
"                                                                                                                                ",
"                                                                                                                                ",
"                                                                                                                                ",
"                                                                                                                                ",
"                                                                                                                                ",
"                                                                                                                                ",
"                                                                                                                                ",
"                                                                                                                                ",
"                                                                                                                                ",
"                                                                                                                                ",
"                                                                                                                                ",
"                                                                                                                                ",
"                                                                                                                                ",
"                                                                                                                                ",
"                                                                                                                                ",
"                                                                                                                                ",
"                                                                                                                                ",
"                                                                                                                                "
};
