/* XPM */
static char *door1696677912[] = {
/* columns rows colors chars-per-pixel */
"64 64 237 2 ",
"   c #000001",
".  c #0D0302",
"X  c #040907",
"o  c #04050A",
"O  c #0A070B",
"+  c #060A0C",
"@  c #0A0B0D",
"#  c #140803",
"$  c #110C0E",
"%  c #01120C",
"&  c #010213",
"*  c #050B12",
"=  c #0C0E11",
"-  c #01021A",
";  c #010C1C",
":  c #0E0F18",
">  c #110E12",
",  c #051215",
"<  c #0D1214",
"1  c #041A15",
"2  c #03121D",
"3  c #0D141C",
"4  c #041C1C",
"5  c #0C1A1B",
"6  c #131315",
"7  c #181616",
"8  c #141619",
"9  c #191719",
"0  c #15191C",
"q  c #1B1B1D",
"w  c #221617",
"e  c #231C1D",
"r  c #15211F",
"t  c #1E201F",
"y  c #000D22",
"u  c #040B24",
"i  c #000329",
"p  c #031524",
"a  c #0B1524",
"s  c #011925",
"d  c #0C1A25",
"f  c #03152B",
"g  c #0D162A",
"h  c #011B2E",
"j  c #0E1B2C",
"k  c #111627",
"l  c #141C24",
"z  c #1B1E21",
"x  c #131D2A",
"c  c #001735",
"v  c #041D33",
"b  c #0C1E33",
"n  c #131E32",
"m  c #201F21",
"M  c #0A232D",
"N  c #152325",
"B  c #1D2223",
"V  c #13222B",
"C  c #1C232B",
"Z  c #182928",
"A  c #1B2A2B",
"S  c #002234",
"D  c #082738",
"F  c #0D263B",
"G  c #142433",
"H  c #1A2533",
"J  c #1D2A35",
"K  c #11263A",
"L  c #172839",
"P  c #15293B",
"I  c #1C2B3B",
"U  c #0A333F",
"Y  c #1E3035",
"T  c #1C313F",
"R  c #222324",
"E  c #2C2325",
"W  c #252927",
"Q  c #242629",
"!  c #282729",
"~  c #25292C",
"^  c #2B2B2D",
"/  c #352528",
"(  c #2E302F",
")  c #37312F",
"_  c #222536",
"`  c #242C33",
"'  c #2C2E32",
"]  c #222E3B",
"[  c #292D39",
"{  c #302E31",
"}  c #233334",
"|  c #2D3134",
" . c #24313C",
".. c #2B343B",
"X. c #2E3A3D",
"o. c #333335",
"O. c #33363A",
"+. c #393639",
"@. c #353A3C",
"#. c #3A3B3D",
"$. c #042A41",
"%. c #092A46",
"&. c #0B2F4D",
"*. c #152B46",
"=. c #1C2E43",
"-. c #123146",
";. c #1B3245",
":. c #1D334A",
">. c #18384A",
",. c #0F3352",
"<. c #183856",
"1. c #1D3D55",
"2. c #292F43",
"3. c #233343",
"4. c #2B3643",
"5. c #253946",
"6. c #2D3A44",
"7. c #22344B",
"8. c #2B374B",
"9. c #24394C",
"0. c #2B3C4B",
"q. c #323642",
"w. c #333B43",
"e. c #3B3E42",
"r. c #333D4B",
"t. c #3C3F4A",
"y. c #253C52",
"u. c #2B3D51",
"i. c #283F59",
"p. c #313F55",
"a. c #403F41",
"s. c #1E405B",
"d. c #274147",
"f. c #2D424C",
"g. c #374647",
"h. c #3D4143",
"j. c #34424C",
"k. c #3C444B",
"l. c #2C4254",
"z. c #23415A",
"x. c #28475A",
"c. c #2C455A",
"v. c #334454",
"b. c #3A4553",
"n. c #334854",
"m. c #3E4A55",
"M. c #344659",
"N. c #33495C",
"B. c #3B4C5C",
"V. c #345A5F",
"C. c #1C466A",
"Z. c #194B72",
"A. c #274764",
"S. c #2E4B64",
"D. c #364E62",
"F. c #354964",
"G. c #3B4D62",
"H. c #2D546B",
"J. c #335366",
"K. c #3B5262",
"L. c #3C546A",
"P. c #3C596B",
"I. c #2C5273",
"U. c #2F5E79",
"Y. c #345573",
"T. c #385C77",
"R. c #3D637A",
"E. c #434344",
"W. c #43464A",
"Q. c #484749",
"!. c #444A4D",
"~. c #4A4C4D",
"^. c #4E504F",
"/. c #404552",
"(. c #434B53",
"). c #4A4E53",
"_. c #424E5A",
"`. c #445454",
"'. c #4C5153",
"]. c #45515D",
"[. c #4B525B",
"{. c #465A5B",
"}. c #515355",
"|. c #52555A",
" X c #555A5D",
".X c #5A5C5D",
"XX c #4D605E",
"oX c #454F62",
"OX c #435463",
"+X c #4B5662",
"@X c #4C5966",
"#X c #42576C",
"$X c #48566D",
"%X c #445A6C",
"&X c #4B5C6B",
"*X c #535B64",
"=X c #555C67",
"-X c #435B74",
";X c #525E71",
":X c #46616C",
">X c #4F626D",
",X c #5C6166",
"<X c #54616C",
"1X c #4C6272",
"2X c #486474",
"3X c #44657E",
"4X c #4A647C",
"5X c #4C6B7E",
"6X c #526374",
"7X c #586774",
"8X c #546B7E",
"9X c #5C6B7A",
"0X c #5C707B",
"qX c #616666",
"wX c #61656C",
"eX c #626A6E",
"rX c #646C73",
"tX c #616D7A",
"yX c #65747E",
"uX c #395F85",
"iX c #3E6986",
"pX c #446481",
"aX c #496B87",
"sX c #4F7281",
"dX c #477289",
"fX c #4B718B",
"gX c #4D728D",
"hX c #577487",
"jX c #5D7083",
"kX c #567794",
"lX c #5A7B90",
"zX c #6C7A85",
"xX c #637F95",
"cX c #567AA0",
"vX c #728893",
"bX c #5990AB",
"nX c #7A9FAA",
/* pixels */
"0 #.~ 0 6   8   @.W.5 0 R '.} 5 8 , O.e.5 z = 6 ' o.#.h.| X O ^ ~   ^ E.$ ^ q   @   ( ^ 7 7 > > O   E.(       o.e R E.^   Q.E   ",
"Q     #.R 0 z B R B | R o.{.X.* 4 V 0 W.!.!.8   0 rX#.  W z B o.O.  t +.R t q   = R +.^ o.R   $   9   ! e     Q.{ a.9 Q.+.  9 q ",
"X...  B R B   ~ h.4 ~.!.[ Q g.Z @.O.@.~ , ~ 0 0 * @.@.o.z 0 B   @.~.W o.#.#.  > q ~ @.6   @   ( #.E R m 9 R 9 R ! R m   #.E.W O ",
"@.'.N ..    @.' } l O.'.2 k.).  ' ' 5 ' 0 8 0 < 0   0 E.W.X ' #.( ( e (   o.E.  W t h.^.  m E.o.W E.a.        R +.! m   ^ ~.^ X ",
"~ ..` } g.@.'.Q w.`.  ( o.` N 4 X.  * ~.Q X X   B 0 z  XQ   ' #.e . W #.= 0 +.  a.^.W +.#.  +.E.^ e { ( { ! +.  { e.>   { +.{ ^ ",
"~ N l Z ..h.A 5 @...Q B *   X.'.e.#.E.  O R 6   6 % ' e.= = z 0 w / =   q @   6 N o..X^   | @ q ^   R 9 R ! a.! O   E ( 6 7 W e ",
"^ C Z    X!.C Q !.h.Z 1 o.( @.'.^ h.#.  6 ~.W q R @.z o + w.[ l z o o @ 6 q < 6 <   X ^ t ~.~     R 6 @       @ $ 7 a.R ^ 7   m ",
"9 =   '.rXe.C | 0  Xe.r e E.( ~ ^ R #.Q   o.q     8 ~ ' 8 W.).8 k.~     o   < t @ X 6 o.e.0 6 @ < < W #.e R     W 6 9 m   >   O ",
"'.| < W.w.0 B ^ < o 0 r t +.  h.o.  8 Q Q m Q.e.@.[ (.O...o.~  ...[ }.C k.(.#.q 9   ^   @ 6 @ @ X   7 W R | @   7 O q R ^.!     ",
"~ @.< +.~ q h.q 6   X t #.o.^ t   o.#.8   = e.(.[.w.OXr.  ..6.k a _ 5.H k h.| ` w.  e.!.  o =   @ o.| o.X 7   6 +.O q e { 9 7 9 ",
"~ 0 ( R 0 o.o.< X W +.@ q 0 #.W Q   ^ = ; 0   =.7.*.y.M.M.[.` p   0.oXy ; R x [ m.t.@.=Xg.Q @ ~ Q o.~ W.q 6 o.#.R o.O 7   9 { { ",
"o.  ^ o.1 '.#.% N 6   R ( 6 q < C =XH L w.8 b A.P.#X9.M.6Xr.!.8.B.2.3.r.=X` k.r.& _.@XB. .O.  * B +     Q 8 6 R     ^     ! 9 6 ",
"  7 @ B q }.6 6 | o.W m R l ..Z k +Xl.L.m.  @Xy.L.P.9.r.I I w.5.D.:.3.4._.4.yXvX<X+X7X9.& 4.[ z C   q   Q <     6 B E.+.E.    6 ",
"#.+.o.o.  q E.t 6 ~ q o ' ~ G h f 1.L.#X&X3 !.a K l.p W.z 0 W.^ l w.0.] G M tX9X@X6X3.9.b.8.~ !.q.m + 8 . R 0 = q R   t R q R   ",
"| t ~ B o.W  Xo.#.@   q W.8  .G.%.kXM.K f.G ` ..C : (.^ | O.@.0 < 0 V y r.4.s 3.B.OXM.jXB.0.k 2 & O.~ q   t 6 z B R ^ B 6 W ^   ",
"#.  @.+.o.R   o.^   * N C n $XuXZ.2Xv.i j.j.l 0 & C e.  > *   6 @   3   @.w.; H 0.;.b.$X;.B.].- }   }.~.  @ 6 X 6 q q 6 @.6 9 $ ",
"X   q +.+.W X O   < O ~ L 9.aXkXlXh v.8.l l 8 * * <       X o O X     @   X z q 8 a x 8.&X9XrX[ *X_.3.*X!.    X E.'   o.O.% q   ",
"@ t 0 ^ ^     q !.B } e.r.c.$.6XhXA.4.=X^ * ^ 6   O @                   @ X   8 > + 3 H 5.9X+X&XM.$X1.*.@.q ( ^ #.+.7 t q #.^ R ",
"B     o.t % E.!.#.* C Z 2XjX(.& $.L.H | l C *                                       ^ e.w.H -.sX-XxX$X=.3.  ^ ^ 7 +.}.^ +.E.( 9 ",
"6 o..X( X A e.# } N C z.dX5Xb.,.7.v.a l z o                                     +   q 6 ~...; %XuXaXjX;Xn.6 = W q   R #.t     E.",
"@ O.^.!   r 7 > c.u.D.C.Y.4X0.>.&X>X  l 8                                                 Q h.v.Y.pXjXOX8.= q R 0 8 = X +.,X  +.",
"@.h.0 9 6 @   l.aXY.C.<.fXN.U n.6.V   o                                             o   = z N ..8.&X1Xu.u.x o.  z 8 6 0 7 E.0   ",
"#.@.  ^ #.0 h.N.Y.iX-Xl.4XN.b.8.s   o   o                                                       k L K 5.N.F x [   < % E.(     0 ",
"R X A +.^   E.3.A.U.R.%X5Xc.I  .l @                           o                             + * * C V h 8.1.&.+X(.  B @ R W ( 0 ",
"@.qX1   X k.!.B.Y.U.%.{.>X%.>.a                                                     o         6 * k 2 (.+X<.,.H | B ~.a.  q e.#.",
"a.Z X X z X.@X4XaX-XI.nXhX&.n.  o             o                                               6 3 Z d w.&XS.i.9.f Q [ ^   B   @ ",
"6 % .   @ A v.%.dXkXU.gXc.`.w.  +             o                                                   !.[ ..b.%.u.B.[.z ` @.o.@ W X ",
"W +.# / = ..M.pXlXiX%X .5.n..   o o                                                       o   o o * x v.b.K f ;X_.  = w.,X  z 0 ",
"R @ w ) W w.9.iXpXB.T d.J @.^                                                         o       o 3   (.B.h b I (.&   Q q ..  | @.",
"  } A   } f.iXfXfX5XV.M ~ o.@ =                                                                   * C H _ [ p G _.w.* z 0 0 ~ ' ",
"  | B = XX5.3XbXvX%X:Xd.  = o     o     o                                           o             l 0.0.O.7Xk.L I ).|.  0 6 | C ",
"q q   ( eXb.&XhXiXx.=X^ | 8                                                                       * ;.0._ e.zXv.& r.(.8 4 N C !.",
"#.@.* Q z ; ] sXR.J.M < Q z O   o                                                         o       3 4.] | R k.r.] F k ~ | W...6.",
"R o.~ B ~ | n.vXK.d.X.@.N 0 O o                                                                   + ` /.Q = & %.*.L ; z | @.Z Y ",
"  q q   e.W.x q.k.f.f...@.o X               o                                                     < o.@.J d M 9.v.k.w.Q   < @.~ ",
"t 9 { + >   O.wX..U f.g.6.  @           o                     o                   o           o   8 Q I =.u.K.r.r.+Xk. X< < C C ",
"o.w R     6 C s v.yX>X].o  .<   o                                                                 ' h.-.P.5X8X{.5.& z ~ < Z 5 0 ",
"6 w e   ( o.; ; L &XJ.n.l b.6   o                                                             =   h.,X-.5X5X>.i ;.b.'   e Z o.= ",
"      6 7 6 & L K.>.s ;.r. .X X                                                   o           @ = < j.v.5X4X:.b.5.B.j.m E 0 Q.B ",
"@ Q.E.  6 k q.8.jXT.8X7Xf.L     X                                                               @ 6.v.pXfX%X;.J ].OX} N 8 ' q.z ",
"  }.}.^ q = [ =.jXL.F.p.v 0.w.O                                                             o   A L Y.iX3Xl.R *Xw.k.`.N +... .z ",
"^   ~ E.B O C =.F.p.jXb b.6.w.O.  X o                                                       < X _ l.J.R.:Xj. .W.d * 0 @   Z j.N ",
"o.' o.O ' @ ' OXb.8.&XG [.r.~ 0 R <           o                                           o @ * B.l.>.S B.r.&  .].e.o 1 B Q @.q ",
"^.> R q   Q : Q.W.f i 3.j.D 6.[ 8 +                                                     X   3 G OXu.5.@X].m.l.2 l ' B w |.Z | R ",
"@     7 q q q ~ 0 a r.x 9X7Xp ..l l < o                                             X > @   6.P.z.D b ;X6X:.].k.o 6   / > +.R   ",
"  +.E.@ W   ' e.  t.(.b.m.b.; H o ~ Q B @ @                                       +   6 o w.n.$.d.K.4.B.0.L j.tX| 7 < 8 ^ o.q   ",
"@   R 9 8   = q 3 e.C I I D ].].[ ....^                                         o   R C u  .m.8.&XzX  9.p.p [.w.B 8 o q ^ R   ^ ",
"o.+.z q 9 o   8 o & [ =.l.M.OX{.J 2 O.C + Q   o o                                   ~ 6.w.B.*X@Xx.S K.oXI  .w.*   < o X   6 q o.",
"  a.+.    6 O @   h.w.k K b.v c  .l 5   z C   o o       O o       o         9   q 6 B J T 9X1Xu =.#X;X8.  !.B 0   z     X   ).+.",
"      ! #.  X 7 + ^ ' [ w.@Xf J |.z &X&X3. .[ `   Q o         o         @ 8 R 2 ^ ` @. .j.9.9.B.N.8.` a   +.@.6 B ~ 8 ^ o.o.B +.",
"$ ~   ^ ^.~ =   Q 0   w.b.q.OXT   r.kXhXu.p.j.6.h.X.o.R ~ X     3 , 3 9 3 x x L G C   V tX6Xl.L.OXL < eX,X  @.0 '.Q #.o.  @ 7 X ",
"7 ^ R     t = q ^ * X ` z ` *XI j.3.F.H.%XG.I @Xm.` l ..<X(.H ] b L j .._ ` ` r.<Xw...|.7Xy.u.oX+X~ 7 h.o.  ^ R < 8     +.#.  #.",
"q e.'   R   O R R O.0 8 e.w.; q.(.4.=.%X1X#XB._.6.j.r.J f.8.l.N.:.9.9.H ` K d w.;Xk.(.| 6.%.r._.= o ~     ^ #.^ ).~ q R h.E.t ^ ",
"  9 e   +.#.q 9   W 0   B e.* p c :.8.7.y.7.7X3.G.m._ m.x.1.J.z.;.9.0.j j.b.[.F j ` ` (.  g k O.w.' @ R N < +.a.E.  q t ^   Q X ",
"R 7   o.+.X q 6 R 6 @   o.o.& 2 d b.4.v ;.;X0.1XOXI 5.Y.pXs.S.P.K S l.L H 3.OXv.O.  Q 7X(.* ~ h.~ = <     @ @ 6   R q ~.R #.W.e ",
"> O W #.+.O   o.#.o.q   R @.6 O | #.7 _ 5.t. .OXv.o 8X-XC.3Xl.J.K.B.J - 8.<.I.9.e.    @.).m | }.e.: q ' Q.9 >     o.W R   6 q q ",
"q a.> m o.@   o.R ^ E     ~ o.t @.0 h.| l B C t.9.;.G.i.,.7.5X#XN.OX9X-XF.-X:.4.  ).W.= !.o.6 R E.  ( .X#.  t o.q | q   X o.'   ",
"7 W     a.O ( #.9 +.q     o.E.W B !.~ o ~ k.q =Xq.u n n c b 6XOXv.*.#XL.F.v.x 7X[ ^ w.^ ( q   ^ #.  @ @.o.( h.o.! W q   +.~.~ q ",
"  O ^ 9     @ 9 $ O   R X     @ , N B o | ^ ' ).).o o > 2.(.[ k._.=Xm.  3 k : b.h.    B 8 R | R   R > ~ o.^ E.R E. XW ' ^ q o.o.",
"  { E.W 9 6 O   o m @ q   @ X ^ $ { q   0 R 0 B z   O wXO.' @.' C |.O.O.O.! ' O   q Q ^ #.@ o.q @ E.  t R       ^ Q.O ( e   E..X",
"~ )   +.o.> 9 >     7 R W ~.W # E $ 6   q = O   q h.0 R o [.}.        ~ o.  @ 0 N R   t h.0 o.q B ~ W t X 7     #.E.t ~ X ~ #.o.",
"R E.^ o.> 6 { O   q +.{ q 9 m m 6 6 6 7 ) = < X.~ E.Q @. X8   8 0 t O 0 J B   B t @ 7 B 0 q ~ B ^ W #.+.( ^ t = R W   ^ @ W ^ R ",
"! ! 6 $ O ^ ^ 7   +.#.  O     q   q @.R 6   ^ h.  @.~.W.#.q e.W       q @.'.q     +.'   =     B t >     6 ~.+.+.E.o.      6 q q ",
"#.! ^ a.9 7   $ +.6   6 ^ ~.9   #.o.#.^   6 q + @ Q ).|   X ~ B B B   e ^ R X t q ^ q 6 @ o @     O q     O   @ E.(   > o.+.( @ "
};
