/* XPM */
static char *Ekran_Resmi_2023_10_07_2_10_18_PM_21696677154[] = {
/* columns rows colors chars-per-pixel */
"64 64 80 1 ",
"  c None",
". c black",
"X c #000035",
"o c #000036",
"O c #000037",
"+ c #00003B",
"@ c #4D4D2E",
"# c #4A4A3F",
"$ c #000042",
"% c #000047",
"& c #00004A",
"* c #000053",
"= c #4B4B41",
"- c #4E4E41",
"; c #7A7A69",
": c #1B1B99",
"> c #191A9F",
", c #0200A8",
"< c #0200A9",
"1 c #0405AB",
"2 c #0200AC",
"3 c #1919AE",
"4 c #0300B6",
"5 c #0200B9",
"6 c #0300B9",
"7 c #2829AB",
"8 c #2728D1",
"9 c #2D2CD0",
"0 c #3F3FD9",
"q c #0203F9",
"w c #0000FA",
"e c #0203FA",
"r c #0203FB",
"t c #0000FC",
"y c #0101FC",
"u c #0001FD",
"i c #0101FD",
"p c #0103FC",
"a c #0001FE",
"s c blue",
"d c #0100FF",
"f c #0200FF",
"g c #0300FF",
"h c #0400FF",
"j c #0E0EFF",
"k c #1010FF",
"l c #1112FF",
"z c #1212FF",
"x c #1414FF",
"c c #191AF8",
"v c #2D2DE7",
"b c #2D2DE8",
"n c #2C2CEC",
"m c #2E2DEC",
"M c #3F3FE3",
"N c #2627FF",
"B c #2D2DFB",
"V c #2D2EFF",
"C c #3030F9",
"Z c #3030FA",
"A c #3030FB",
"S c #4140DA",
"D c #4040E3",
"F c #8F8F82",
"G c #919185",
"H c #929285",
"J c #919186",
"K c #929286",
"L c #939388",
"P c #979793",
"I c #9C9C98",
"U c #AEAEAB",
"Y c #B1B1AD",
"T c #B0B0AE",
"R c #B1B1AE",
"E c #B2B2AE",
"W c #CACACA",
"Q c #CBCBCB",
"! c #DADADB",
"~ c gray86",
/* pixels */
"                                                                ",
"       HHHHHHHLHHHHHLHHHHHLHHHHHLHHHHHLHKKKKKKKKKKKKKKKKHHHGP~  ",
"  ..++oo++o+o+o++o+o++o+o++o+ooo++o+o++o+oooo+o+o+o++o+o++o$..Q ",
"  %0BCCCCCCCCACCACCCCCCCCACCAAACCCCCCACCAACCAACCCACCACCCCCCBM.= ",
" .3sshshshhsshhsshhshshshshshhshhshsshhhshhshshshhshhsshhhshs:. ",
" .<xqssqqsqesqessqqsqsqeqssqsqsqsqsesqqsseqssqsqqssqsqsqsqses8. ",
" .<zqsqsssssssssspspsssssssssesssqsssqsssspssspsspsssesssssehm.U",
" .<zsssssspssqssspsssspssssessspsspssssspssssqssssspssspsqsqhv.E",
" .<zqsssspssppssssppsspspsssssspsspspsssppsssspppsssssspssppsb.E",
" .<zsesssspssssppsssspssssppppsspspssspssssppsssssppppssspsehb.E",
" .<zqssqppsssssppsssssppspsssspsspssspspsssppsssspsssspssspesb.E",
" .<zqsssssspppsssspppssssspsspssssspspssppssssppsspsspsspssehb.E",
" .<zsssspssssssppsssssspppsssspppsspsspssspsspssppsssspppssphb.E",
" .<zqsqsssppspsssspsppsssssppssspsspspssspsssspssssppssssssesb.E",
" .<zsqssspsspspsspspsspssssppsssssssssppssppppsssssppsssspsesb.E",
" .<zqsppsspssspsspssspssppssssppsppspssspsssssspppssssppsssqhb.E",
" .<zsssqssppsspsspssppssspssspsssppspssspsssssspssspspssspsesb.E",
" .<zqssspsssspsssspsssspspspsspsssssssppssppppssspssspspsspehb.E",
" .<zqssspsssssppppssssspsspsppsspsspspssspsssspspspssspsppsesb.E",
" .<zqsqssspppsssssspppsspssssssppsspsspssspsspsssspspssssssehb.E",
" .<zsssspssssssppsssssspsspppsssssspspssppssssppspsspssppssehb.E",
" .<zqsqssspsppssssppspsspsssssppspssspspsssppssssspspsspssspsb.E",
" .<zqsssspspsspsspsspspspsssspsspspssspssssppsssppssssssspsesb.E",
" .<zsqssspssspsssspssspsssppsspssspspsssppssssppssspsppssssqhb.E",
" .<zqsssssssssppppssssppssspspssspssppssspssspsssppspssspssesb.E",
" .<zqsssqssppssssssppsssspssspspsspsssspspspsspssssssspppssphv.E",
" .<zqssesssppssssssppssspspssspsppssssspsspsppsspsspspsssssesb.E",
" .<zsessppssssppppssssppsspspsssssspppsspssssssppsspsspssppehb.E",
" .<zsqsssspsspsssspsspssspsspssppsssssspsspppsssssspspssspsrhb.E",
" .<zqsssspsssspsspsssspssspspsspssppspsspsssssppspssspspsssrsb.E",
" .<zsssqssppppssssppppssppssssssspsspspspsssspsspspssspspssrhb.E",
" .<zqssspssssssppsssssspssspsppssspssspsssppsspssspspssspssesb.U",
" .<zqspssppspssssppspssspssssssppsspsssppssspsspssspspssspsesb.E",
" .<zsqssssssssppssssssppssppppsspsspspsssspspsspspssspspsspehb.E",
" .<zqssspsspspsspsspspssspsssspssssspspsspspsssspspssspsppsesb.E",
" .<zqsqspsspsspspsspsspssspsspsssppssspsspsssppssspspssssssehb.E",
" .<zqsssssspspssssspspssppssssppsppssspsspsssppsspsspssppssehb.E",
" .<zqsssspssspspspssspspsssppssssssspspsspspsssssspspsspssspsb.E",
" .<zqssppspssspspspssspssssppssspsspspsssspspsspppssssssspsesb.E",
" .<zsesssspspssssspspsssppsssspppsspsssppssspsspssspsppssssqhb.E",
" .<zsssqpssspsspspssppssspssspssssspspsssspspssspssssssppssesb.E",
" .<zqssssspspsspsspsssspspspsspsspssspsppspssspsssppppsspssphv.E",
" .<zqsssspspssssppssssspsspsppsspspssspsspssspspspsssspssssesb.E",
" .<zqsqsspsssppsssspppsspsssssspsspspsssssspspsssspsspsssppehb.E",
" .<zssssspsssppspsssssspsspppsssspsspssppsspsspsppsssspppssphb.E",
" .<zqsqsspspssssssppspsspsssssppsspspssppsspspsssssppssssssesb.E",
" .<zqssssspspsspspsspspspsssspssppssssssssssssppsssppsssspsesb.E",
" .<zsqsspssspsspsspssspsssppsspsssspsppssppspsssppssssppsssqhb.E",
" .<zqssssqspsssppssspsspssspspssssspsppssppspsssssspspssspsesb.E",
" .<zqsssssspspsssspspsspspssspspppssssssssssssppspssspspsspehb.E",
" .<zqssesssspspsspspsssspspssspssspspssppsspspsspspssspsppsesb.E",
" .<zsesssppssspsspsssppssspspsssspsspssppsspsspssspspssssssehb.E",
" .<zsqsssppssspsspsssppsspsspsspsspspsssssspspssspsspsspspsphb.E",
" .<zqssssssspspsspspsssssspspssppspssspsspssspspsspspsspsssesb.E",
" .<zsssqpsspspsssspspsqsppssssssspssspsppspssssqppsssssspssesb.E",
" .<zqssspsspsssppssspsssssspsppsssspspsssspspsssssspsppspssqhb.E",
" .<zqsssssssqsspsssqssssssqssssspssssssssssessssqssssssssssesv. ",
" .<zqsqsspssssssqssspssspsssssqspssssqspqsssspsssssqpsqsspsqhm. ",
" .<xqssssssssspssssssssssssssessssssssspssssssssssssssssssqqs9. ",
" .>sssqsqqsqqqsqsqqsqsqqqqsqsqqsqsqqsqsqsqqsqsqqsqsqsqqsqsssh7. ",
" #.DNzzzlzzzzlllzzzllzzzllllzzzllzzzzzzlzzzllzzzzzllzzzzzzjcS&- ",
" Q..&<54444444444444444444444444444444444444444444444444461*..  ",
"  ~I;......................................................@    ",
"                                                                "
};
