/* XPM */
static char *left1696676283[] = {
/* columns rows colors chars-per-pixel */
"64 64 149 2 ",
"   c None",
".  c #000000",
"X  c #0C0B00",
"o  c #00000B",
"O  c #120E01",
"+  c #131200",
"@  c #1C1B03",
"#  c #1F1C0A",
"$  c #000013",
"%  c #242300",
"&  c #2B2B00",
"*  c #302E01",
"=  c #343301",
"-  c #3D3C00",
";  c #31300E",
":  c #3A3913",
">  c #0D0D22",
",  c #00002D",
"<  c #1B1B2C",
"1  c #010132",
"2  c #020139",
"3  c #0D1037",
"4  c #1F2024",
"5  c #2C2B2A",
"6  c #38382C",
"7  c #252538",
"8  c #403E00",
"9  c #434200",
"0  c #484700",
"q  c #4E4D01",
"w  c #504F00",
"e  c #555401",
"r  c #585600",
"t  c #5E5C00",
"y  c #565518",
"u  c #636200",
"i  c #686700",
"p  c #6C6A00",
"a  c #706E01",
"s  c #747301",
"d  c #7C7B00",
"f  c #464424",
"g  c #565533",
"h  c #585835",
"j  c #7D7C27",
"k  c #7C7C28",
"l  c #000242",
"z  c #272841",
"x  c #323245",
"c  c #222350",
"v  c #272854",
"b  c #2A2B53",
"n  c #363655",
"m  c #3A3A50",
"M  c #3F3F61",
"N  c #45455A",
"B  c #4B4C5E",
"V  c #515053",
"C  c #757542",
"Z  c #4E4E67",
"A  c #4D4D6B",
"S  c #54546A",
"D  c #5A5A6F",
"F  c #5C5D70",
"G  c #616271",
"H  c #63637A",
"J  c #6D6D7C",
"K  c #858300",
"L  c #898700",
"P  c #8C8A00",
"I  c #908F00",
"U  c #949200",
"Y  c #989700",
"T  c #9C9A00",
"R  c #A09E01",
"E  c #A3A100",
"W  c #A8A700",
"Q  c #ADAB00",
"!  c #B0AF00",
"~  c #B5B400",
"^  c #B9B701",
"/  c #BCBA00",
"(  c #808023",
")  c #C5C300",
"_  c #C8C600",
"`  c #CDCC00",
"'  c #C5C30C",
"]  c #D0CE00",
"[  c #D4D201",
"{  c #D9D700",
"}  c #DBD901",
"|  c #D4D30C",
" . c #D8D60C",
".. c #DCDB0A",
"X. c #CAC817",
"o. c #CDCC1B",
"O. c #D5D313",
"+. c #D8D610",
"@. c #DCDA11",
"#. c #DAD818",
"$. c #E1DE02",
"%. c #E1DF16",
"&. c #E5E301",
"*. c #E8E601",
"=. c #EEED00",
"-. c #E4E30D",
";. c #E8E709",
":. c #EDEC0D",
">. c #F1EF00",
",. c #F1EF0B",
"<. c #F2F000",
"1. c #F8F603",
"2. c #FBF902",
"3. c #F6F40A",
"4. c #F9F70A",
"5. c #FBF90B",
"6. c #E5E312",
"7. c #EDEB13",
"8. c #E7E51D",
"9. c #EEED19",
"0. c #F1EF14",
"q. c #F0EE1B",
"w. c #F5F314",
"e. c #F8F613",
"r. c #FCFA13",
"t. c #F5F31C",
"y. c #F9F71B",
"u. c #FCFA1C",
"i. c #CCCA20",
"p. c #E6E425",
"a. c #EEED21",
"s. c #E2E028",
"d. c #F0EE23",
"f. c #F1EF2B",
"g. c #F5F324",
"h. c #FDFB22",
"j. c #F9F72A",
"k. c #7B7B8A",
"l. c #82828D",
"z. c #8E8E95",
"x. c #95959C",
"c. c #999AA5",
"v. c #AAABB0",
"b. c #B2B2B6",
"n. c #B9B9BD",
"m. c #BDBDC2",
"M. c #CFCFD0",
"N. c #D9DADB",
"B. c gray88",
/* pixels */
"                                                                                                                                ",
"                                                                                                                                ",
"                                                                                                                                ",
"                                          n 5 - t p s d s p u 0 * x M                                                           ",
"                                  4 t U ^ [ $.*.=.>.<.<.<.<.>.=.*.{ ) E s ; c                                                   ",
"                          A > d / $.>.1.1.1.<.3.<.3.3.<.3.3.<.3.3.<.1.1.<.*.` Y 8 v                                             ",
"                      2 w ~ &.<.1.1.3.<.<.<.<.<.>.>.>.>.>.>.>.>.>.<.<.<.<.3.1.1.=._ d ,                                         ",
"                  v u _ >.1.4.<.<.<.>.>.>.>.<.<.<.<.<.<.>.<.<.<.<.<.>.<.>.>.>.<.<.1.1.{ P .                                     ",
"              Z 0 / <.2.3.<.>.>.>.<.<.>.<.<.>.<.<.<.<.<.<.<.<.<.>.<.<.<.<.<.<.>.<.<.<.4.1.{ p                                   ",
"            o R ;.4.<.>.>.>.<.<.<.<.<.<.<.<.<.<.>.<.<.<.>.<.<.<.<.<.>.<.<.<.<.>.<.>.>.>.<.1.3.^ =                               ",
"          = ` 3.<.>.>.<.>.<.<.<.<.<.<.<.<.<.<.<.<.<.<.>.<.<.<.>.<.<.<.<.>.<.<.<.<.<.<.<.>.>.<.5.$.K                             ",
"        s ;.1.<.<.<.<.<.<.<.<.<.<.>.<.<.<.>.<.<.<.<.<.<.<.<.<.<.>.<.<.<.<.<.<.<.>.<.<.<.<.<.<.<.5.7.W .                         ",
"      G p p.5.>.>.<.<.<.<.<.<.>.<.<.>.<.<.<.<.>.<.<.<.<.<.<.<.<.<.<.<.>.<.<.>.<.<.<.>.<.<.<.>.>.<.<.e.~ X                       ",
"        z.= o.e.<.>.<.>.<.<.<.<.<.<.<.<.<.<.<.<.<.>.<.<.<.<.<.<.<.<.<.<.<.<.<.<.<.<.<.<.<.<.<.<.<.>.<.u.~ =                     ",
"          b.o ~ q.4.>.<.<.>.<.<.<.<.<.<.<.>.<.<.<.<.=.=.<.<.<.<.<.>.<.<.<.<.<.<.<.>.<.<.<.<.<.<.<.<.<.<.u.W V                   ",
"            M.m U 6.r.>.>.<.<.<.>.<.<.<.<.<.<.<.>.<.1.2.<.>.<.<.<.<.<.<.<.>.<.<.<.<.<.<.<.>.<.<.<.<.<.<.1.w.W                   ",
"              B.J i | h.>.<.<.<.<.>.<.<.<.<.>.<.1.*.[ ` *.1.<.<.<.<.<.>.<.<.>.<.<.<.<.<.<.<.<.<.<.<.<.<.=.2.*.Y                 ",
"                  x.* ^ h.<.>.<.<.<.<.>.<.>.1.>._ - . . w ~ <.<.>.<.<.<.<.<.<.<.<.<.>.<.<.>.<.<.<.>.<.<.<.>.r...h               ",
"                    n.. Y f.3.>.>.<.<.<.<.>.1.] = . X + . u ) 2.>.>.<.<.<.>.<.<.<.<.<.<.<.<.<.<.<.<.<.<.<.>.1.<._ o             ",
"                      N.2 a p.y.>.>.<.<.>.1.>.^ . + . O . = T 2.>.<.<.<.<.<.<.<.>.<.<.<.>.<.<.>.<.<.<.>.<.<.=.3.9.s             ",
"                          H : o.h.<.>.<.>.<.<._ . . & = . q ~ 2.>.>.<.<.<.<.<.<.<.<.<.<.<.<.<.<.<.<.<.<.<.>.>.<.3.` O           ",
"                            c.3 W j.1.=.<.>.1.=.W . . . . Y *.1.>.<.<.<.<.<.<.>.<.<.>.<.<.>.<.<.<.>.<.<.<.<.<.<.<.t.i           ",
"                              m.n d f.1.>.<.<.<.<.{ ! W [ =.1.=.<.<.<.<.>.<.<.<.>.<.<.<.<.<.<.<.<.<.<.<.<.<.<.>.>.r.~           ",
"                                N.F - s.4.<.>.<.<.1.1.1.1.<.>.<.<.<.>.<.<.<.<.<.<.<.<.<.<.<.<.>.<.<.<.>.<.<.>.>.>.1.&.t         ",
"                                    l.$ i.w.1.=.<.<.>.>.>.<.<.<.<.<.<.<.<.<.<.<.<.<.<.<.<.>.<.<.<.<.<.<.<.<.<.<.>.<.y.d         ",
"                                      v.l Q 9.1.=.<.<.<.<.<.<.<.>.<.<.<.<.>.<.<.>.<.<.<.<.<.<.<.>.<.<.<.<.<.<.>.>.>.u.W         ",
"                                          S L 8.5.=.<.<.<.<.<.<.<.<.<.<.<.<.<.<.<.<.<.>.<.<.<.<.<.<.<.>.>.<.<.<.<.>.r.)         ",
"                                            l.t  .r.>.>.<.<.>.<.<.<.<.>.<.<.<.>.<.<.<.<.<.<.>.<.<.<.<.<.<.<.<.<.<.>.5.{ j       ",
"                                                % / t.3.=.>.<.<.<.>.<.<.<.<.<.<.>.<.<.<.>.<.<.<.<.>.<.<.<.<.>.<.<.>.4.*.K       ",
"                                                  . Y :.2.>.>.<.<.<.<.<.<.>.<.<.<.<.<.<.<.<.<.<.<.<.<.<.<.<.<.<.<.>.1.*.P       ",
"                                                      d { 1.>.<.<.<.<.<.<.<.<.>.<.<.>.<.<.<.>.<.<.<.<.<.<.<.<.<.<.>.1.=.I       ",
"                                                      6 ) 4.>.>.<.<.>.<.<.<.<.<.<.<.<.<.<.<.<.<.<.<.>.<.<.>.<.<.<.>.1.=.I       ",
"                                                      [ 4.<.>.<.<.>.<.<.>.<.<.<.<.<.<.<.<.>.<.<.>.<.<.<.<.<.<.<.<.>.1.=.L       ",
"                                                    @.<.<.>.<.<.<.<.<.<.<.<.<.<.>.<.<.<.<.<.<.<.<.<.<.<.>.<.<.<.<.>.1.*.L       ",
"                                                  6.1.<.>.<.<.<.<.<.>.<.<.<.>.<.<.<.<.>.<.<.<.<.<.<.>.<.<.<.>.<.<.>.5.{ (       ",
"                                              i %.4.>.>.<.<.<.>.<.<.<.<.<.<.<.<.<.<.<.<.<.<.>.<.<.<.<.<.<.<.<.<.<.=.r.` C       ",
"                                            d $.1.=.<.<.<.<.<.<.<.<.<.<.>.<.<.<.>.<.<.<.>.<.<.<.>.<.<.>.<.<.<.<.<.<.u.Q         ",
"                                          L &.5.<.<.<.<.<.>.<.<.<.<.>.<.<.<.>.<.<.<.<.<.<.<.<.<.<.<.<.<.<.<.<.<.<.<.u.L         ",
"                                        P -.5.>.<.<.<.<.<.<.<.<.<.<.<.<.<.<.<.<.<.<.>.<.<.<.>.<.<.<.>.<.<.>.<.<.<.1.*.u         ",
"                                      L 7.3.=.>.<.<.<.<.<.<.<.>.>.<.<.<.>.<.<.<.<.<.<.<.<.<.<.<.<.<.<.<.<.<.<.>.<.5.) g         ",
"                                    L t.<.>.>.<.<.<.<.<.<.>.<.<.<.<.<.<.<.<.<.<.<.<.>.<.<.>.<.<.<.>.<.<.<.<.<.>.<.g.d           ",
"                                  I y.<.>.<.<.<.>.<.<.<.<.<.<.<.<.<.<.>.<.<.>.<.<.<.<.<.<.<.<.<.<.<.<.<.<.<.>.<.1.{ &           ",
"                                T t.<.>.<.<.<.<.<.<.<.>.<.<.>.<.>.<.<.<.<.<.<.<.<.<.<.<.<.<.<.<.<.<.>.<.<.<.>.3.7.U             ",
"                              ~ w.1.>.<.<.<.<.<.<.<.<.<.<.<.<.<.<.<.<.<.>.<.<.<.<.>.<.<.<.<.>.<.<.<.<.<.<.>.<.<. .o             ",
"                          1 / ,.1.>.<.<.<.<.<.<.<.<.<.<.>.<.<.<.<.<.>.<.<.<.<.<.<.<.<.<.<.<.<.<.<.<.<.<.<.>.5.-.k               ",
"                        X ) 3.1.=.>.<.<.>.<.<.<.>.<.<.<.<.<.<.<.<.<.<.<.<.<.>.<.<.<.<.>.>.<.<.<.>.<.<.<.>.1.=.! N               ",
"                      & ) 3.<.<.<.<.<.<.<.<.<.>.<.<.>.<.<.<.>.<.<.<.<.<.<.<.<.<.>.<.<.<.<.<.<.>.<.<.<.>.<.u.^ N                 ",
"                    9 ) e.>.>.>.<.<.<.>.<.<.<.<.<.<.<.<.<.<.<.<.<.>.<.<.>.<.<.<.<.<.<.<.<.<.<.<.<.<.>.>.r._ e                   ",
"                  w _ r.<.<.<.<.<.<.<.<.<.<.<.<.<.<.>.<.>.<.<.<.>.<.<.<.<.<.<.<.<.<.>.<.<.<.<.<.<.>.>.5.[ e                     ",
"                y ` r.>.<.<.<.<.<.<.>.<.<.<.<.>.<.<.<.<.<.<.<.<.<.<.<.<.>.<.<.<.<.<.<.<.<.<.<.<.>.>.4.O.9                       ",
"              f  .r.>.>.<.<.<.>.<.<.<.<.<.<.<.<.<.<.<.<.<.<.<.<.<.<.>.<.<.<.<.>.<.<.<.<.<.<.<.=.1.3.X.+                         ",
"            q 8.3.<.>.<.<.<.<.<.>.<.<.<.>.<.<.<.<.>.<.<.<.<.>.<.<.<.<.<.<.<.<.<.<.>.<.<.<.<.=.5.7.Q 1                           ",
"            O ' w.4.=.=.<.<.<.<.<.<.<.<.<.<.<.<.<.<.<.<.<.<.<.<.<.<.<.<.<.<.<.<.<.<.<.>.>.<.u.+.d B                             ",
"              z K #.u.1.=.>.>.<.<.>.>.<.>.<.<.<.<.<.<.<.>.<.<.<.<.>.<.<.<.<.<.<.<.>.>.<.5.d.E . l.                              ",
"                l.$ P -.u.4.<.>.>.>.<.<.<.<.<.<.>.<.<.>.<.<.<.>.<.<.<.<.<.<.>.=.>.<.r.a.~ & D                                   ",
"                    l.. L [ t.r.1.>.>.>.>.>.>.>.<.<.<.<.<.<.<.<.<.>.>.=.>.<.<.r.u.6.W # b                                       ",
"                        k.> e W ..g.u.r.1.<.<.>.>.=.>.>.>.>.>.>.>.<.1.4.u.g.;./ s . G                                           ",
"                              k.2 - I ^ { 7.t.u.y.u.u.u.y.y.h.u.y.7.} _ T t . Z                                                 ",
"                                      F 7 @ 0 p L U T R R Y P s r & <                                                           ",
"                                                                                                                                ",
"                                                                                                                                ",
"                                                                                                                                ",
"                                                                                                                                ",
"                                                                                                                                "
};
