/* XPM */
static char *down1696676283[] = {
/* columns rows colors chars-per-pixel */
"64 64 139 2 ",
"   c None",
".  c #000000",
"X  c #0A0A00",
"o  c #00000E",
"O  c #0F1200",
"+  c #151500",
"@  c #1D1E00",
"#  c #000116",
"$  c #00011B",
"%  c #242400",
"&  c #282700",
"*  c #2B2B00",
"=  c #353400",
"-  c #3C3C00",
";  c #000226",
":  c #00022A",
">  c #000435",
",  c #00043A",
"<  c #434300",
"1  c #4C4C00",
"2  c #535300",
"3  c #5B5B00",
"4  c #646200",
"5  c #6C6B00",
"6  c #757300",
"7  c #787700",
"8  c #7C7B00",
"9  c #787823",
"0  c #000643",
"q  c #070940",
"w  c #30314C",
"e  c #3C3D51",
"r  c #3C3C59",
"t  c #464558",
"y  c #525357",
"u  c #50505F",
"i  c #434462",
"p  c #4D4E69",
"a  c #555564",
"s  c #595A6D",
"d  c #5C5C70",
"f  c #62626C",
"g  c #676774",
"h  c #696972",
"j  c #6D6E79",
"k  c #76767C",
"l  c #797979",
"z  c #807F00",
"x  c #838200",
"c  c #888700",
"v  c #8D8B00",
"b  c #908F00",
"n  c #939200",
"m  c #989706",
"M  c #9C9B00",
"N  c #9C9B0C",
"B  c #A09F00",
"V  c #A3A200",
"C  c #B4B301",
"Z  c #BDBB00",
"A  c #B1B00F",
"S  c #A5A418",
"D  c #AAA91B",
"F  c #B5B414",
"G  c #B3B11B",
"H  c #B7B622",
"J  c #C0BE00",
"K  c #C4C200",
"L  c #C9C700",
"P  c #CCCA00",
"I  c #C2C008",
"U  c #CBCA0E",
"Y  c #DBD901",
"T  c #DFDD0E",
"R  c #C3C215",
"E  c #D0CE1D",
"W  c #DBD914",
"Q  c #D5D31C",
"!  c #DBDA1E",
"~  c #E1DF12",
"^  c #E7E600",
"/  c #EDEB01",
"(  c #F0EF00",
")  c #F2F000",
"_  c #F8F700",
"`  c #FAF802",
"'  c #F9F70C",
"]  c #FAF80B",
"[  c #E3E017",
"{  c #E6E41C",
"}  c #E8E71E",
"|  c #F8F714",
" . c #FBF914",
".. c #F5F31C",
"X. c #F8F61B",
"o. c #FBF91C",
"O. c #C5C326",
"+. c #CECD27",
"@. c #D0CE27",
"#. c #D4D224",
"$. c #DDDC24",
"%. c #D2D12A",
"&. c #DDDB28",
"*. c #E0DE24",
"=. c #E0DF28",
"-. c #E4E326",
";. c #E8E723",
":. c #ECEB24",
">. c #E5E328",
",. c #F0EE23",
"<. c #F4F222",
"1. c #F8F721",
"2. c #FBF921",
"3. c #747584",
"4. c #7E7E82",
"5. c #7D7D8B",
"6. c #808084",
"7. c #86868C",
"8. c #848591",
"9. c #8C8C93",
"0. c #919193",
"q. c #939399",
"w. c #9E9E9D",
"e. c #9C9CA0",
"r. c gray67",
"t. c #ADADB4",
"y. c #B5B5B4",
"u. c #B8B8B7",
"i. c #BABAB9",
"p. c #C1C1BF",
"a. c #BFBFC1",
"s. c #C4C4C3",
"d. c #C8C8C6",
"f. c #CCCDCC",
"g. c #D4D4D4",
"h. c #D9D9D6",
"j. c #E7E7E5",
"k. c #E8E8E5",
"l. c #EEEEED",
/* pixels */
"                                                                                                                                ",
"                                                  d # . . < 4 6 7 7 5 1                                                         ",
"                                            h . . 8 C ! :.<.1.X.o.X.1.<.:.$.I n * .                                             ",
"                                        r . 5 R ;.X.' ` ) ) ( ( / ) ) ) ) _ ' | ,.#.v . o                                       ",
"                                    h . z #.X.` ) ) ( ( ( ( ) ) ( ) ) ) ( ( ( ) ) _  .;.V . >                                   ",
"                                y.. 1 #. ._ ( ( ) ) ) ) ) ) ) ) ) ) ) ) ) ) ) ) ( ( ) ) ] >.v . 6.                              ",
"                              4.. D ,.` ( ( ) ) ) ) ) ) ) ) ) ) ) ) ) ) ( ) ) ) ) ) ) ( ( ) | +.. ,                             ",
"                            e . %.` ) ( ( ( ) ) ) ) ) ) ) ) ) ( ) ) ) ) ) ) ) ) ) ) ) ) ) ) ( ` :.6 .                           ",
"                        j.; 2 >.` ( ( ) ) ) ) ) ) ) ) ) ) ) ) ) ) ) ) ( ) ) ) ( ) ) ) ) ) ) ) ( ) ..N .                         ",
"                      k.$ 4 :._ ( ) ( ) ) ) ) ) ) ) ) ) ) ) ( ) ) ) ) ) ) ) ) ) ) ) ) ) ) ( ) ) ) ( | D .                       ",
"                      , 4 ,._ ( ) ( ) ) ) ) ) ) ) ) ( ) ) ) ) ) ) ) ) ) ) ) ) ) ) ) ) ) ) ) ) ) ) ) ( ' D .                     ",
"                    a < :.) ( ( ) ) ) ) ) ) ) ( ) ( ) ) ) ) ) ) ) ) ) ) ) ) ( ) ) ) ) ( ) ) ) ) ) ) ( (  .N .                   ",
"                  0.. >._ ( ( ) ) ) ( ) ) ) ) ( ) ) ) ) ) ( ) ) ) ( ) ) ) ) ) ) ) ) ) ) ) ( ) ) ) ) ) ( ) X.7 0                 ",
"                d.. @.` ( ( ) ) ) ) ) ) ) ) ) ) ) ) ) ) ) ) ) ) ) ) ) ( ) ) ) ) ) ) ) ) ) ) ( ) ) ) ) ) ) ) :.O 7.              ",
"                o V ] ( ) ) ) ( ) ) ) ) ) ) ) ) ) ) ) ( ) ) ) ) ) ) ) ) ) ) ( ) ) ) ) ) ) ) ) ) ) ) ) ) ) ( _ #..               ",
"              7.< <.) ( ) ) ) ) ) ) ) ( ) ) ) ) ) ) ) ) ) ) ) ( ) ) ) ) ) ) ) ) ) ( ) ) ) ) ) ) ) ) ) ) ) ) ( ' B >             ",
"            h.. #._ / ) ) ) ) ) ) ) ( ) ) ) ) ) ) ) ) ) ) ) ) ) ) ) ) ( ) ( ) ) ) ) ) ) ) ) ) ) ) ( ) ) ) ) ( ) ,.@ e.          ",
"            s x o.( ) ) ) ) ) ) ( ) ) ) ) ) ) ) ( ) ) ) ) ) ) ) ) ) ) ) ) ) ) ) ( ) ) ) ) ) ) ( ) ) ) ) ) ) ) ( _ R .           ",
"          f.. *._ / ) ) ) ) ) ) ) ) ) ) ) ) ) ) ) ) ) ) ( ) ) ) ) ) ) ) ) ) ) ) ) ) ) ) ) ) ) ) ( ) ) ) ) ) ) ( ( <.3 9.        ",
"          d v o.( ) ) ) ) ) ) ) ) ) ) ) ) ) ) ( ) ) ) ) ) ) ) ) ) ) ) ) ) ) ) ) ) ) ) ( ) ) ) ) ) ) ) ) ) ) ) ) ( _ U .         ",
"          . ! _ ( ) ) ) ) ) ) ) ) ) ) ) ) ) ) ( ) ) ) ) ) ) ( ) ( ) ) ) ) ) ) ) ) ) ) ) ) ) ) ) ) ) ) ) ) ) ) ) ) ) 1.1         ",
"        9.5 1.( ) ( ) ) ) ) ) ) ) ) ) ) ) ) ) ) ) ) ( ) ) ) ) ) ) ) ) ) ) ) ) ( ) ) ( ) ( ) ) ) ) ) ) ) ) ) ) ) ) / ' C 0       ",
"        : K ' / ) ) ) ) ) ( ) ) ( ) ) ) ) ) ) ) ) ) ( ) ) ) ) ) ) ) ) ) ) ) ( ) ) ) ) ) ) ) ) ) ) ) ) ) ) ) ) ) ) ) ) ;..       ",
"        . :.) ) ) ) ) ) ) ) ( ) ) ) ( ) ) ) ) ) ) ) ) ) ) ) ) ) ) ( ) ) ) ) ) ) ) ) ) ) ) ) ) ) ) ) ) ( ( ) ) ) ) ) ( 2.x 5.    ",
"      8.x o./ ) ) ) ) ) ) ) ) ) ) ) ) ) ) ) ) ) ) ) ) ) ) ( ) ) ) ) ) ) ) ( ) ) ) ) ) ) ) ) ) ) ) ) ( ) ) ) ) ) ) ) ) ' K >     ",
"      0 J  .) ) ) ) ) ) ) ) ) ) ) ) ) ) ) ) ) ) ( ) ) ) ) ) ) ) ) ) ) ) ) ) ) ) ) ) ) ) ) ( ( ) ) ) ) ) ) ) ) ) ) ) / _ } .     ",
"      . { ) ( ) ) ) ) ) ( ) ) ) ) ) ( ) ( ) ) ) ) ( ) ) ) ) ) ) ) ( ) ) ( ) ) ) ( ) ) ) ) ) ) ) ) ) ) ) ) ) ) ) ) ) ) ) 1.4     ",
"      < <.) ) ) ) ) ) ) ) ) ) ) ) ) ) ) ) ) ) ) ) ) ) ) ) ) ) ) ) ) ) ) ) ) ) ) ) ) ) ) ) ) ) ) ) ) ) ) ) ) ) ) ) ) ) / o.V     ",
"    8.c 2.( ) ) ) ) ) ( ) ) ) ) ) ) ) ( ) ) ) ) ) ) ) ) ) ) ) ( ) ) ) ( ) ) ) ) ) ( ) ) ) ) ) ) ) ) ) ) ) ) ) ) ) ) ) / | L ,   ",
"    p C  .( ) ) ( ) ) ) ) ) ) ) ( ) ) ) ) ) ) ) ) ) ) ) ) ) ) ) ) ) ) ) ) ) ) ) ) ) ) ) ) ) ) ) ) ( ) ) ) ) ) ) ) ) ) ( ) [ .   ",
"    , P ' / ) ) ) ) ) ) ) ) ) ) ) ) ) ) ) ) ) ) ) ) ( ) ( ) ) ) ) ) ) ) ) ) ) ) ) ) ) ) ( ) ) ) ) ( ) ) ) ) ) ) ) ) ) ) ) :.+   ",
"    . T ' ( ) ) ) ) ) ) ) ) ) ( ) ) ) ) ) ) ) ( ) ) ) ) ) ) ) ) ) ) ) ) ) ) ) ( ) ) ) ) ) / ( ) ) ) ) ) ) ) ) ) ) ) ) ) ) 1.2   ",
"    . { ) ( ) ) ) ) ) ) ) ) ) ) ) ) ) ) ) ) ) ) ) ) ) ) ) ) ) ) ) ( ) ) ) ) ) ) ) ) ) ) _ _ _ / ) ) ) ) ) ) ) ) ) ) ) ( ( 1.6   ",
"    * ,.) ( ) ) ( ) ) ) ) ) ) ( ) ) ) ( ) ( ) ) ) ) ( ) ( ) ) ) ( ( ) ) ) ) ) ) ) / _ / Z C Y _ ( ) ) ) ) ( ) ) ( ) ) ) ( o.v   ",
"    < ,.) ) ) ) ) ) ) ) ) ) ) ) ) ) ) ) ) ) ) ) ) ) ) ) ) ) ) ) _ ( ( ) ) ) ) ) ( _ ^ 3 . . . L _ ) ) ) ) ) ) ) ) ) ) ) ( 2.M   ",
"    1 1.) ) ) ) ) ) ) ) ( ) ) ) ( ) ) ) ) ) ) ) ) ) ) ) ) ) ( _ W ( ) ( ) ) ) ( ( _ n . = * . = / ) ( ) ) ) ) ) ) ) ) ) ( o.V   ",
"    2 <.) ) ) ) ) ) ) ) ) ) ) ) ) ) ) ) ) ) ) ) ) ) ) ) ) ( _ Q . A ` ( ) ) ) ( _ / 1 . X . % . L _ ) ) ) ) ) ) ) ) ) ) ( o.V   ",
"    1 <.) ) ) ) ) ) ) ( ) ( ) ) ) ) ) ) ) ) ) ) ) ( ) ) ) _ #.. y . U ` ( ( ) ( ) ^ - . X . @ . K _ ) ) ) ) ) ( ) ) ) ) ( o.V   ",
"    < <.) ) ( ) ) ) ) ) ) ) ) ) ) ) ) ) ) ) ) ) ) ) ) ( _ &.. 4.  q.. >.` ( ) ) ( ) 5 . & + % . Y _ / ) ) ) ) ) ) ) ) ) ( o.M   ",
"    * :.) ( ) ) ) ) ) ) ) ) ) ) ) ) ) ( ) ) ) ) ) ) / _ &.. k       a 2 <.) ( ) ( _ L . . . . v ) ( ) ) ) ) ) ) ) ) ) ) / o.n   ",
"    . } _ ( ) ) ) ) ) ) ) ( ) ) ) ) ) ) ) ) ) ) ) ( _ >.. h           # v | ( ) ) ( _ J 3 < M ( ) ( ) ) ) ) ) ) ) ) ) ) ( 1.7   ",
"    . [ ` ( ) ) ) ) ) ) ) ) ( ) ) ) ) ) ( ) ) ) / _ >.. f               . G ` ( ) ) ( _ ( ( _ ) ) ) ) ) ) ) ) ) ) ) ) ) ( 1.3   ",
"    : P ' ( ) ) ( ) ) ) ) ) ) ) ) ) ) ) ( ( ) ( _ ;.@ u                 i.. @._ ( ) ( ( ) ) ( ( ) ) ) ) ) ) ( ) ) ) ) ( ) :.%   ",
"    i C  .( ( ) ) ) ) ) ) ) ) ) ) ( ) ) ) ( ( _ :.= t                     0.. -._ ( ) ( ( ( ) ) ) ) ) ) ) ( ) ) ) ) ) ( ) { .   ",
"    5.n o.( ( ) ( ) ) ) ) ) ) ) ) ) ) ) ) ( _ :.1 w                         s 2 ,.) ( ) ) ) ) ) ) ) ) ( ) ) ) ) ) ) ) ( ' P >   ",
"    t.2 1.( ) ) ) ) ) ) ) ) ) ) ) ) ) ) ( ) ,.2 q                             # v | ( ( ) ) ) ) ) ) ) ) ) ) ) ) ) ) ) ( o.V d   ",
"    h.. ;.) ( ) ) ) ) ) ) ) ) ( ) ) ) ( ) ,.4 ,                               h.. G ` ( ) ) ( ) ) ) ) ) ) ( ) ) ) ) ) ) 1.6     ",
"      > K ' ( ) ) ) ) ) ( ) ) ) ) ) ) ) ..5 $                                   i.. @._ ( ) ) ) ) ) ) ) ) ) ) ) ) ) ) ) ;..     ",
"      3.v o./ ) ) ) ) ) ) ) ) ) ) ) ) ..7 o                                       0.. -._ ) ) ) ( ) ) ) ) ) ) ) ) ) ( ' P ;     ",
"      a.+ ,.) ) ) ) ) ) ) ) ) ) ) ) ..x .                                           a 2 ,.) ( ) ) ) ) ) ) ) ) ) ) ( ( o.v 3.    ",
"      l.. L ' ( ) ) ) ) ) ) ) / ) ..c .                                               $ v | ( ) ) ) ) ) ) ( ) ) ) ( ) :..       ",
"        5.8 X.( ) ) ) ) ) ) ) ) | b .                                                 h.. G ` ( ) ( ) ) ) ) ) ) ) ( ] K :       ",
"        g.. *._ / ) ) ) ) / )  .m .                                                     i.. @._ ( ) ) ) ) ) ) ) ) ) 1.3 q.      ",
"          i M  .) ) ) ) ) )  .N .                                                         0.. -._ ( ) ( ) ) ) ) ( _ Q .         ",
"          s.. ;._ / ) ) ) ' S .                                                             a 2 ,.) ( ) ) ) ( ) ( X.6 3.        ",
"            r n  .) ) ) ' D . s.                                                              $ v | ( ) ) ) ) ( _ E .           ",
"            f.. &._ ( ] G . s.                                                                h.. G ` ( ) ) ) ) <.1 8.          ",
"              j 4 .._ H . i.                                                                    i.. +._ ( ) ( ] C .             ",
"              j.. F O.. y.                                                                        9.. -._ / _ &.. i.            ",
"                u.. . r.                                                                            a 2 <.) ,.2 g               ",
"                  l w.                                                                                $ v 2.n o                 ",
"                                                                                                      h.. 9 . g.                ",
"                                                                                                        i.. i.                  ",
"                                                                                                                                "
};
