/* XPM */
static char *ghost_left1696680343[] = {
/* columns rows colors chars-per-pixel */
"64 64 231 2 ",
"   c None",
".  c #00015E",
"X  c #02026A",
"o  c #000A6B",
"O  c #030274",
"+  c #01007B",
"@  c #030777",
"#  c #051E7B",
"$  c #002F7A",
"%  c #234376",
"&  c #CB020B",
"*  c #D50104",
"=  c #DC0202",
"-  c #DC020B",
";  c #D80607",
":  c #C90215",
">  c #D30211",
",  c #DA0114",
"<  c #D90C14",
"1  c #DD1B1B",
"2  c #D51917",
"3  c #D3180F",
"4  c #E40201",
"5  c #EB0101",
"6  c #EE0900",
"7  c #E3040B",
"8  c #EC020B",
"9  c #EA0A0B",
"0  c #E10B03",
"q  c #F30002",
"w  c #FA0002",
"e  c #F2020A",
"r  c #E40012",
"t  c #E90211",
"y  c #E60B15",
"u  c #ED0C1B",
"i  c #E90819",
"p  c #F50013",
"a  c #F2021B",
"s  c #F30D1E",
"d  c #F90A18",
"f  c #EC1113",
"g  c #EC1916",
"h  c #E5151C",
"j  c #EB151C",
"k  c #E41A1D",
"l  c #EB1B1D",
"z  c #E61D15",
"x  c #F51517",
"c  c #F51913",
"v  c #F3131D",
"b  c #F21B1C",
"n  c #FA1719",
"m  c #E5110D",
"M  c #DB211D",
"N  c #CE211B",
"B  c #E5221B",
"V  c #EB241D",
"C  c #EC311E",
"Z  c #DD1D22",
"A  c #D71826",
"S  c #F30D23",
"D  c #E51523",
"F  c #EC1523",
"G  c #E51C23",
"H  c #EB1C24",
"J  c #E31629",
"K  c #EB152B",
"L  c #E41E2A",
"P  c #EC1C2A",
"I  c #F31523",
"U  c #FB1325",
"Y  c #F21B25",
"T  c #F3162B",
"R  c #F31C2A",
"E  c #FA1D2C",
"W  c #FD1925",
"Q  c #EC1D33",
"!  c #F31C33",
"~  c #F91931",
"^  c #EC0E27",
"/  c #DC2324",
"(  c #DB2529",
")  c #D0352E",
"_  c #E42324",
"`  c #EB2225",
"'  c #ED2C26",
"]  c #E4222A",
"[  c #ED222A",
"{  c #E42B2A",
"}  c #EB2B2B",
"|  c #E62A25",
" . c #F22225",
".. c #F32B22",
"X. c #F2222B",
"o. c #F22B2C",
"O. c #FD2528",
"+. c #E6342C",
"@. c #EB322D",
"#. c #E73B2B",
"$. c #F2332B",
"%. c #E32533",
"&. c #EB2332",
"*. c #E42C33",
"=. c #EC2C34",
"-. c #EC2A3A",
";. c #F32333",
":. c #F72C33",
">. c #FB2C34",
",. c #F92A35",
"<. c #E43334",
"1. c #EC3231",
"2. c #E53834",
"3. c #ED3B33",
"4. c #EE3439",
"5. c #E53B3B",
"6. c #E93B3C",
"7. c #E3353D",
"8. c #F23435",
"9. c #F1353B",
"0. c #F43B3C",
"q. c #FA3938",
"w. c #EC4435",
"e. c #EE2F41",
"r. c #EC3A44",
"t. c #EB3546",
"y. c #F63543",
"u. c #F33C43",
"i. c #F53E4A",
"p. c #FB3A42",
"a. c #D34B58",
"s. c #D84D4B",
"d. c #EA4346",
"f. c #F54348",
"g. c #EE4E53",
"h. c #E85858",
"j. c #F25452",
"k. c #EC655B",
"l. c #F9645D",
"z. c #EB5965",
"x. c #F35A6C",
"c. c #DD7272",
"v. c #EF606C",
"b. c #E3686A",
"n. c #F3646B",
"m. c #F46C6C",
"M. c #EA6973",
"N. c #E87575",
"B. c #F47378",
"V. c #F17369",
"C. c #F1847F",
"Z. c #060088",
"A. c #011384",
"S. c #04298C",
"D. c #053786",
"F. c #03428E",
"G. c #184B8C",
"H. c #3C5699",
"J. c #3B5787",
"K. c #3A638E",
"L. c #425788",
"P. c #414991",
"I. c #687B9C",
"U. c #4658A2",
"Y. c #505CA4",
"T. c #5C6FB1",
"R. c #597BAB",
"E. c #6475AD",
"W. c #E97E8A",
"Q. c #7D87BA",
"!. c #93A7BE",
"~. c #A7A3BB",
"^. c #EA8585",
"/. c #E68C8D",
"(. c #F5858D",
"). c #F58884",
"_. c #ED928F",
"`. c #E99995",
"'. c #F69B98",
"]. c #F5918F",
"[. c #EAA39B",
"{. c #F8A498",
"}. c #EB9FAC",
"|. c #E9ABA4",
" X c #E6AAA2",
".X c #F6AAA9",
"XX c #F4BAAB",
"oX c #F4B3B0",
"OX c #FAB4B9",
"+X c #F0B1B2",
"@X c #E7C6BB",
"#X c #F3CBB6",
"$X c #93A5C1",
"%X c #A9ABC7",
"&X c #A8B2C8",
"*X c #ADB2D2",
"=X c #B5C3D8",
"-X c #B7CACE",
";X c #C9D1DB",
":X c #D6D2CD",
">X c #FCCBCA",
",X c #F9C9C8",
"<X c #EED3CE",
"1X c #ECDBC9",
"2X c #F6D3CA",
"3X c #FAD4C7",
"4X c #FBDCDA",
"5X c #F4D9D2",
"6X c #D8E2D7",
"7X c #FDE3DD",
"8X c #F2E9DA",
"9X c #F3F0DD",
"0X c #D0CEE3",
"qX c #D6D9E6",
"wX c #FCDCE2",
"eX c #D9E5F0",
"rX c #E9E5E4",
"tX c #FCE8E7",
"yX c #E6F1E7",
"uX c #FEFAED",
"iX c #FDF5EC",
"pX c #E8ECF3",
"aX c #FDEDF4",
"sX c #EFF9FF",
"dX c #F3F2F3",
"fX c #FEF5F5",
"gX c #F4FDF6",
"hX c #FDFDF5",
"jX c #FEF5FD",
"kX c #F4FEFC",
"lX c #FDFDFD",
/* pixels */
"                                                                                                                                ",
"                                                                                                                                ",
"                                                        2X>X>X,X>X,X2X<X                                                        ",
"                                                ,X|./.B.z.g.u.r.u.i.g.z.N._.|.@X                                                ",
"                                          5X[.n.f.*.] P j H G _ G k l F I R =.i.n.[.5X                                          ",
"                                      >X^.r.I o.[ F H H `  .X.[ X.` X.` H H G R o.Y r.^.>X                                      ",
"                                    (.;.[ 1.H Y R R [ H H Y H F F H ` ` ` [ P X.R H +.[ ;.(.                                    ",
"                                XXt.T <.` Y [ L _ H H G H H H ` R G H H j R H L ] [ U [ 1.^ e.#X                                ",
"                              _.< :.>.H H ` P H H H H H H H H H H H H H H H H H L H X.H H :.>.< _.                              ",
"                            M.t >.X.h h [ H k H H H H L H H H H H H H H H H H H ` h G o.D h o.>.t M.                            ",
"                          b.q p.G G H H H H G Y H H H H H H H H H H H H H H H H H G H H H [ ` k p.q b.                          ",
"                        x.5 w.f k H [ H G H Y G H H H H H H H H H H H H H H H H H Y H G H H H D y 6.6 v.                        ",
"                      /.q f.U F X.H H H H H H P H H H H H H H H H H H H H H H H H H H H H P H X.R j u.q /.                      ",
"                    |.4 5.u / P G D H  .H H H ` H H H H H H H H H H H H L H H H G Y H H H  .H h G Z S 7.5  X                    ",
"                  :X4 4.,.G &.H H Y P k G H H D H H H H H H H H H H H H H H H H H H H H H H P X.l &.L  .5.4                     ",
"                  V.p #.u X.j b j Y H Y H H G ` H H H H H H H H H H H H H H H H H H H H H H Y j l j ;.s #.p b.                  ",
"                +X< 2.G F / ] O.;.` I k B l l R H ` k _ H U H L T H b B { } H ` K H R H Y G _ Y Y G b ` ^ r.t                   ",
"                z.a o.b :.*.k m h [ @.-.! l ! Z Y H _ I k _ R H ` P &.=.P a F &.C *.F H L ` l F P P Y k Y { s s.                ",
"              @X5 w.H B 8 5 q 8 q 4 e q ( K W K W ] H F [ G [ k _ ' 8 q q w 5 q 4 x ' R H f ` R D Y P l  .l ,.;                 ",
"              N.4 =.' q e V.'.+XXX`.z.9 q +.z V H G G R T R h ` [ e r N. XOX+X'.z.4 5 } v ` R k H H P P z Y ,.6 N.              ",
"              < e.` 7 g.@XfXlXlXlXjXfXOX0.4 -.g l H H H I j o.b 5 V.>XlXjXlXkXjXtX.XG 5 1.G ` R H Y P P h P ! ..2               ",
"              e w.e n.aXlXjXhXuXhXjXlXkXtXg.8 e.l G b H G _ =.y (.tXlXjXlXlXiXkXhXlX2X>.5 _ T G l  .P G H L K 2.q               ",
"            W.q 9 r.8XlXlXhXhXlXkXgXkXlXkX1Xw f =.u ` R 2 0.r k.fXlXlXgXlXlXlXlXfXjXkX@X5 8 ;.P H H H G  .H H -.w N.            ",
"            a.4 7 XXlX0X&X&XqXjXlXjXgXlXlXjX.X= 6.E G l 1.a d #XhX;X%X*XqXgXkXjXkXgXjXhX(.8 C G X.D V l P l z ;.0 a.            ",
"            = q y.uX;XZ.Z.X + &XlXjXkXlXkXjX4X6 d 7.z Z 0.5 B.fX=X+ O X @ -XlXlXlXlXhXlX,X8 4 =.H H H H H H H H *.4             ",
"            0 e ^.dXH.o L.U.S.# eXlXlXlXhXlXaXj.q t.u T 0.4 .XeXG.X Y.Y.O U.pXlXlXlXgXhX7X0.5 } j P ` H H H H H =.5             ",
"            = 5 ].eXA.P.F.F.D.D.=XhXlXlXuXhXfXB.4 t.h R @.8 OX;XD.% F.F.G.S.qXlXhXhXkXlX7Xh.5 1.H H H H H H H H 9.4             ",
"            4 8 ).aX$ D.J.L.$ @ 0XlXjXlXuXlXaXv.q y.P ` +.8 .XqXD.A.K.L.S.D.6XgXlXlXjXjX7Xd.5 } F H H H ` H H H 9.5             ",
"            5 j x.gX$XX @ + X Q.kXhXjXkXhXjXwX3.5 <.l F 0.5 ).kX$XX Z.+ @ !.jXlXjXlXfXlX2Xy 8 8.l H H H H H H F 9.5             ",
"            4 =.4 <XlX~.E.R.%XpXlXgXlXgXlXlXoX5 3.[ H Y =.8 P 4XsX~.T.I.%XdXhXjXlXhXuXkX'.8 l Y H P H H H H Y G 4.5             ",
"            4 4.w N.kXlX9XpXhXlXjXkXlXlXlX8Xh.e 4.s h R L } e ].gXkXyXyXlXlXkXlXlXhXhX2X5.t *.Y H H H H H H P H 4.4             ",
"            4 r.F 6 }.hXlXlXlXgXlXjXhXlXfX(.4 6.F %.H g H <.f 8 oXjXhXlXgXjXhXkXjXkXaXB.5 ;.R B H H H H H H H H 4.5             ",
"            0 4.R g 8 [.rXlXkXlXgXkXjX4X).i | } j P  .H H Y G y e {.fXjXkXlXfXlXhX5XV.t ` { H H H H H H H H H H 9.4             ",
"            4 4.L  .l q l..X2X4X7X3X'.j.e ' } a [ H G H H P Y  .f 4 n.XX,XwXrX,X{.&.8 [ :.y [ H H H H H H Y H H 4.4             ",
"            4 4._ j o.$.6 0 e 2.y.8 0 5 1._ F B H H H H H P Y P %.o.4 q v 5.w.5 q 8 $._ T P ( b H ` ` H H H H F 9.4             ",
"            4 4.h R J K 5.:.e 4 5 9 } 5.T L Y H G H H H H H G j F %.f.} = 5 q a 8.+.H F [ D R j H H H H H H H H 9.4             ",
"            4 4.J R H ` Z L *.4.{ 4.! I / B P Q Y G H Y H l G X.Y l k ` :.t.4.*.~ G ] H P ] H L H H ` H H H H F 4.4             ",
"            4 4.~ 1 z n Y L T I R D D l x ` ` F H H H H P G H H n G P R l f x H 2  .b b b j Y P H H H H H P H l 4.4             ",
"            4 9.f G H H R _ G _ F _ ..l ] L b V G H ` H G H H h P L P D P } ] G  .j Y ` B _ P R H H Y H H H H H 9.4             ",
"            4 4.H ] K T G b ` F Y _ j Y D T R D Y H G H ` H G ` H H l ` H F Y H P R L J T P k _ H P ` H H H H P 4.4             ",
"            5 8.G H H H H H H H G H H H H H H H H H H L H H H H H H H H H H H H H H H H H H H H H ` H H H H Y H 4.4             ",
"            4 9.F Y Y H H H ` H H H H H H H H H H H H H H H H H H H H H H H H H H H H H H H H H H H H ` H P H j 4.4             ",
"            4 9.H H H H H H H H H H H H H H H H ` H H H H H H H H H H H H H H H H H ` H H H H H H H H H H H Y G 4.4             ",
"            4 9.H H H H ` H H H H H H H H H H H H H H H H H H H H H H H G H H H L H H H H H H H H H H H H H H F 4.4             ",
"            4 9.F Y H H H H ` H H H H H H H H H H H H H H H H H H H H H H H H H H H H H H H H H H H H ` H H H H 4.4             ",
"            4 9.G Y H H ` H H H H H H H H H H H H H H H H H H H H H H H H H H H H H H H H H G H H P H H H H H H 4.4             ",
"            4 4.F H P H H H H H H H H H H H H H H H H H H H H H H H L H H H H H H H H H H H H H H P H H H H H F 4.0             ",
"            4 4.G H ` H H H H H H H H L H H H H H H L H H H H H H H H H H H H H H H H H H H H H H H H ` H H Y G 0.4             ",
"            4 4.I L Y G L Y H b D L H H H H Y H H H H H Y l G Y H H l G Y P H G G Y l P F P Y V P H P G H G H H 9.4             ",
"            4 4.D ` j Y | D P ] R Y ` L G Y G G  .h R  .G D P H [ L H ` H Y H ` H j H H ` L G P H l H P Y Y Y D 4.4             ",
"            4 4.P G L H F  .Y G 1 Y v P H Y Y H P P G D P P  .j j O.H Y L Z T H P R Z G  .H R j H k ` [ G Z ` F 9.4             ",
"            4 4.k P X.I H M F _ O.H k ` Y G G R G ` X.H G _ h ` _ F G Z R R _ l H H [ Y 1 G j `  .G k R I Y H g 9.4             ",
"            4 1.n v k ` V h E ! A G } k l H k [ n x k [ Y F [ T T ] v R _ v l n c b h [ F Y P R h Y Y k Z { H k 9.4             ",
"            4 4.H G &.J F ' ..3.>.[ h  .H F E G L ] H H v Y 1.+.@.@. .v k L P ] M R ] P v ' o.+.y.{ k Y E L k Y 9.5             ",
"            4 4.h ] ! ^ =.[ - = t ;.] k H H H H Q A ;.v | :.8 - - p ' ` U &.J ;.;.A &.I | V 8 , a i [ ..D H P j 4.4             ",
"            4 0.H U z #.q &       > U 2.j W / H x O.3 o.a :         : s o.3 o.x d ( u | E >         t  .{ D I H 4.4             ",
"            ; 9.P H ;.0 )           * ;.' k  .l _ F ;.7 N             * p ,.1 n H R *.} =             ; } T I H 9.4             ",
"            ; 8.F o.4 A               4 0.K T R j ' n *                 7 X.{ K _ D 0.=                 4 ' %.l 2.=             ",
"            = O./ c &                   - d.Y F [ ..=                     4 0.K s w.4                     5 V H O.=             ",
"            - 3...8                       = w.$.0.8                       ) 4 3.f.=                         8 r. .s.            ",
"              , >                           - * >                           > 8 ,                             7 :               ",
"                                                                                                                                ",
"                                                                                                                                ",
"                                                                                                                                "
};
