/* XPM */
static char *gost_right1696688673[] = {
/* columns rows colors chars-per-pixel */
"64 64 120 2 ",
"   c None",
".  c #000063",
"X  c #000069",
"o  c #000070",
"O  c #00007F",
"+  c #001475",
"@  c #001878",
"#  c #1C1A79",
"$  c #1A2177",
"%  c #284373",
"&  c #394272",
"*  c #00FF00",
"=  c #0BFE06",
"-  c #06FF0A",
";  c #0AFF0B",
":  c #10FF0E",
">  c #30FE1F",
",  c #2AFE27",
"<  c #25FF2A",
"1  c #2CFF2B",
"2  c #3AFC22",
"3  c #31FF2E",
"4  c #2FFF30",
"5  c #30FF30",
"6  c #37FF3A",
"7  c #39FF38",
"8  c #46FF4A",
"9  c #56FC48",
"0  c #4FFF53",
"q  c #61F54A",
"w  c #000087",
"e  c #002187",
"r  c #002983",
"t  c #1B2582",
"y  c #192A83",
"u  c #133C83",
"i  c #002391",
"p  c #1C3A90",
"a  c #3E3A87",
"s  c #2F3C94",
"d  c #184084",
"f  c #1E478F",
"g  c #174496",
"h  c #26408B",
"j  c #25498B",
"k  c #354684",
"l  c #394A88",
"z  c #2E5D88",
"x  c #3C5780",
"c  c #3C578C",
"v  c #254A93",
"b  c #204798",
"n  c #364091",
"m  c #3C4D96",
"M  c #36628E",
"N  c #434186",
"B  c #42478B",
"V  c #5C6396",
"C  c #586B94",
"Z  c #5D789F",
"A  c #696799",
"S  c #6E699A",
"D  c #485CAA",
"F  c #446BA2",
"G  c #5064A6",
"H  c #5D77A6",
"J  c #6468A4",
"K  c #6A75AF",
"L  c #7695B5",
"P  c #8B99B3",
"I  c #9296B5",
"U  c #9F9CBA",
"Y  c #A094B0",
"T  c #DBDE90",
"R  c #B6C6D3",
"E  c #C6CED7",
"W  c #C8C7DD",
"Q  c #CACDDC",
"!  c #CAD0D9",
"~  c #CEDEDD",
"^  c #D3DED6",
"/  c #FAD4CF",
"(  c #CDF6C0",
")  c #CEFFCF",
"_  c #CDFCD2",
"`  c #CFFFDA",
"'  c #D2FDD3",
"]  c #DDFFD7",
"[  c #D1FEDA",
"{  c #DBFFDB",
"}  c #E3FECA",
"|  c #EDEADA",
" . c #E8F5DE",
".. c #C9D3E3",
"X. c #D4DCEA",
"o. c #FFDDE8",
"O. c #DCEBE5",
"+. c #DBE5F4",
"@. c #DFE8F1",
"#. c #E2EBE1",
"$. c #EAEBEC",
"%. c #E2FDE2",
"&. c #F5FFEB",
"*. c #FEFBEF",
"=. c #E5E4F1",
"-. c #EFE6F4",
";. c #E1ECF0",
":. c #EDEDF6",
">. c #FEEDF6",
",. c #F5EDFA",
"<. c #FFEFF9",
"1. c #E8F4FB",
"2. c #F6F4F5",
"3. c #FFF5F6",
"4. c #F4FDF6",
"5. c #FCFCF5",
"6. c #F2F5FD",
"7. c #FDF5FE",
"8. c #F5FEFC",
"9. c #FDFDFD",
/* pixels */
"                                                                                                                                ",
"                                                                                                                                ",
"                                                      * * * * * * * * *                                                         ",
"                                              * * * * * * * * * * * * * * * * *                                                 ",
"                                          * * * * * * * * * * * * * * * * * * * * * * *                                         ",
"                                      * * * * * * * * * * * * * * * * * * * * * * * * * *                                       ",
"                                  * * * * * * * * * * * * * * * * * * * * * * * * * * * * *                                     ",
"                                * * * * * * * * * * * * * * * * * * * * * * * * * * * * * * * *                                 ",
"                            * * * * * * * * * * * * * * * * * * * * * * * * * * * * * * * * : * *                               ",
"                            * * * * * * * * * * * * * * * * * * * * * * * * * * * * * * * * * * * *                             ",
"                          * * * * * * * * * * * * * * * * * * * * * * * * * * * * * * * * * * * * * *                           ",
"                        * * * * * * * * * * * * * * * * * * * * * * * * * * * * * * * * * * * * * * * *                         ",
"                      * * * * * * * * * * * * * * * * * * * * * * * * * * * * * * * * * * * * * * * * * *                       ",
"                    * * * * * * * * * * * * * * * * * * * * * * * * * * * * * * * * * * * * * * * * * * * *                     ",
"                    * * * * * * * * * * * * * * * * * * * * * * * * * * * * * * * * * * * * * * * * * * * * *                   ",
"                  * * * * * * * * * * * * * * * * * * * * * * * * * * * * * * * * * * * * * * * * * * * * * *                   ",
"                * * * * * * * * * * * * * * * * * * * * * * * * * * * * * * * * * * * * * * * * * * * * * * * *                 ",
"              * * * * * * * * * * * * * * * * * * * * 5 5 * * * * * * * * * * * * * * * * * 5 4 5 5 3 * * * * * *               ",
"              * * * * * * * * * * * * * * * 5 * * * 5 * * 5 * * * * * * * * * * * * * * 4 1 * * * * * 5 * * * * *               ",
"              * * * * * * * * * * * * * * 4 * * * * * ' ' * 3 3 * * * * * * * * * * * 5 * * ' _ _ ' ( * 5 * * * *               ",
"              * * * * * * * * * * * * * 3 * ' 9.9.9.9.9.7.' * * > * * * * * * * * * * * _ _ 9.9.9.9.7.' * 5 * * *               ",
"            * * * * * * * * * * * * * * * ` 7.3.8.8.9.5.5.9.] &.* * * * * * * * * * 5 [ 9.9.8.4.4.5.9.9.] * 3 * * q             ",
"            * * * * * * * * * * * * * * ] 9.4.9.9.9.9.:...Q -.* T * * * * * * * * * * 9.9.4.9.9.9.$.! E ,.%.* * * *             ",
"            * * * * * * * * * * * * * * 9.*.9.9.9.9.~ S N a V * >.* * * * * * * * 1 %.9.5.8.9.9.Q A & n J =.} * * =             ",
"            * * * * * * * * * * * * * * 5.8.8.9.9.:.H . m m . z 8.* * * * * * * * * 9.5.9.8.9.;.l w v k . H 3.* * *             ",
"            * * * * * * * * * * * * * * 9.8.5.5.9.X.i j v v % g * * * * * * * * *  .5.3.9.9.9.R r d b f B w +.* * *             ",
"            * * * * * * * * * * * * * * 9.7.5.9.8.^ r p x M t e * * * * * * * * * <.9.5.9.7.9.W + u B c h @ ,.* * *             ",
"            * * * * * * * * * * * * * * 9.3.9.7.9.7.L X # t X L * * * * * * * * * o.5.5.8.7.9.2.K X # $ X P 9.* * *             ",
"            * * * * * * * * * * * * * * 8.5.9.9.7.9.$.Y C D I 1.* * * * * * * * * 9 9.8.8.9.8.9.=.I F G Y 7.0 * * *             ",
"            * * * * * * * * * * * * * * / 5.3.9.9.8.9.9.O.#.9.8.* * * * * * * * * * 8 9.8.9.8.3.9.5.;.| 8.9.* * * *             ",
"            * * * * * * * * * * * * * * 2 >.8.9.8.5.3.8.8.9.9.7 * * * * * * * * * = * <.9.5.9.5.8.9.9.9.9.7 - * * *             ",
"            * * * * * * * * * * * * * * * , < 8.9.3.9.8.9.2.1 * * * * * * * * * * * * 1 1 7.8.8.9.8.9.$., * * * * *             ",
"            * * * * * * * * * * * * * * * * * ; ; ; ; ; ; ; * * * * * * * * * * * * * * * ; - ; ; ; ; - * * * * * *             ",
"            * * * * * * * * * * * * * * * * * * * * * * * * * * * * * * * * * * * * * * * * * * * * * * * * * * * *             ",
"            * * * * * * * * * * * * * * * * * * * * * * * * * * * * * * * * * * * * * * * * * * * * * * * * * * * *             ",
"            * * * * * * * * * * * * * * * * * * * * * * * * * * * * * * * * * * * * * * * * * * * * * * * * * * * *             ",
"            * * * * * * * * * * * * * * * * * * * * * * * * * * * * * * * * * * * * * * * * * * * * * * * * * * * *             ",
"            * * * * * * * * * * * * * * * * * * * * * * * * * * * * * * * * * * * * * * * * * * * * * * * * * * * *             ",
"            * * * * * * * * * * * * * * * * * * * * * * * * * * * * * * * * * * * * * * * * * * * * * * * * * * * *             ",
"            * * * * * * * * * * * * * * * * * * * * * * * * * * * * * * * * * * * * * * * * * * * * * * * * * * * *             ",
"            * * * * * * * * * * * * * * * * * * * * * * * * * * * * * * * * * * * * * * * * * * * * * * * * * * * *             ",
"            * * * * * * * * * * * * * * * * * * * * * * * * * * * * * * * * * * * * * * * * * * * * * * * * * * * *             ",
"            * * * * * * * * * * * * * * * * * * * * * * * * * * * * * * * * * * * * * * * * * * * * * * * * * * * *             ",
"            * * * * * * * * * * * * * * * * * * * * * * * * * * * * * * * * * * * * * * * * * * * * * * * * * * * *             ",
"            * * * * * * * * * * * * * * * * * * * * * * * * * * * * * * * * * * * * * * * * * * * * * * * * * * * *             ",
"            * * * * * * * * * * * * * * * * * * * * * * * * * * * * * * * * * * * * * * * * * * * * * * * * * * * *             ",
"            * * * * * * * * * * * * * * * * * * * * * * * * * * * * * * * * * * * * * * * * * * * * * * * * * * * *             ",
"            * * * * * * * * * * * * * * * * * * * * * * * * * * * * * * * * * * * * * * * * * * * * * * * * * * * *             ",
"            * * * * * * * * * * * * * * * * * * * * * * * * * * * * * * * * * * * * * * * * * * * * * * * * * * * *             ",
"            * * * * * * * * * * * * * * * * * * * * * * * * * * * * * * * * * * * * * * * * * * * * * * * * * * * *             ",
"            * * * * * * * * * * * * * * * * * * * * * * * * * * * * * * * * * * * * * * * * * * * * * * * * * * * *             ",
"            * * * * * * * * * * * * * * * * * * * * * * * * * * * * * * * * * * * * * * * * * * * * * * * * * * * *             ",
"            * * * * * * * * * * * * * * * * * * * * * * * * * * * * * * * * * * * * * * * * * * * * * * * * * * * *             ",
"            * * * * * * * *         * * * * * * * * * * * *         * * * * * * * * * * * * *       * * * * * * * *             ",
"            * * * * * * *             * * * * * * * * * *             * * * * * * * * * * *           * * * * * * *             ",
"            * * * * * *                 * * * * * * * *                 * * * * * * * * *               * * * * * *             ",
"            * * * * *                     * * * * * *                     * * * * * * *                   * * * * *             ",
"            * * * *                         * * * * *                       * * * * *                       * * * *             ",
"              * *                             * * *                           * * *                           * *               ",
"                                                                                                                                ",
"                                                                                                                                ",
"                                                                                                                                ",
"                                                                                                                                ",
"                                                                                                                                "
};
