/* XPM */
static char *open_door1696677912[] = {
/* columns rows colors chars-per-pixel */
"64 64 255 2 ",
"   c #000002",
".  c #02010C",
"X  c #0A0A0B",
"o  c #020014",
"O  c #0C0B17",
"+  c #04011B",
"@  c #0E1319",
"#  c #131417",
"$  c #13161C",
"%  c #16191E",
"&  c #060024",
"*  c #080125",
"=  c #0B0C23",
"-  c #05002B",
";  c #09012C",
":  c #0F1229",
">  c #151A23",
",  c #1A1D23",
"<  c #151929",
"1  c #141B2C",
"2  c #050033",
"3  c #0A0234",
"4  c #01003C",
"5  c #0B023B",
"6  c #0C0A3B",
"7  c #120A3B",
"8  c #0D1A37",
"9  c #141D33",
"0  c #191D33",
"q  c #17143A",
"w  c #141D3A",
"e  c #1C2127",
"r  c #1D222C",
"t  c #1C2335",
"y  c #182435",
"u  c #15213B",
"i  c #1B233C",
"p  c #1C2B3C",
"a  c #23252B",
"s  c #232837",
"d  c #232B3C",
"f  c #2B323B",
"g  c #030043",
"h  c #0C0243",
"j  c #0E034B",
"k  c #090748",
"l  c #110444",
"z  c #120B44",
"x  c #11044B",
"c  c #1B074A",
"v  c #110B4B",
"b  c #0B194F",
"n  c #171447",
"m  c #0E0253",
"M  c #040058",
"N  c #110354",
"B  c #13035C",
"V  c #140B58",
"C  c #171356",
"Z  c #241C53",
"A  c #1B2544",
"S  c #182446",
"D  c #1D2B44",
"F  c #1D2B4B",
"G  c #1E314B",
"H  c #1C2A57",
"J  c #1D3357",
"K  c #232B43",
"L  c #252947",
"P  c #232C4B",
"I  c #273349",
"U  c #24334C",
"Y  c #222D53",
"T  c #252A59",
"R  c #233355",
"E  c #2A3354",
"W  c #24345B",
"Q  c #26395A",
"!  c #353B57",
"~  c #080167",
"^  c #140263",
"/  c #170A64",
"(  c #161565",
")  c #0C1274",
"_  c #1A2966",
"`  c #1C3667",
"'  c #0A2C70",
"]  c #1B3B76",
"[  c #232B64",
"{  c #243563",
"}  c #243B64",
"|  c #2A3B64",
" . c #23356A",
".. c #243B6C",
"X. c #2A3D6B",
"o. c #30396B",
"O. c #253C73",
"+. c #283D75",
"@. c #32425C",
"#. c #17436E",
"$. c #294468",
"%. c #2B446C",
"&. c #34456B",
"*. c #274675",
"=. c #2B4473",
"-. c #2B437B",
";. c #2C4B7C",
":. c #354879",
">. c #2B5778",
",. c #36537A",
"<. c #455479",
"1. c #47637F",
"2. c #1B3F83",
"3. c #233782",
"4. c #19508A",
"5. c #2B4885",
"6. c #2B4C8B",
"7. c #334B83",
"8. c #344986",
"9. c #324B8A",
"0. c #2C568A",
"q. c #34538B",
"w. c #385589",
"e. c #2A4C97",
"r. c #324E96",
"t. c #2E5194",
"y. c #3A5494",
"u. c #365798",
"i. c #3B5B9C",
"p. c #386585",
"a. c #376497",
"s. c #3C7494",
"d. c #1D55B4",
"f. c #2D52A5",
"g. c #2F54AA",
"h. c #3B5CA3",
"j. c #3457A8",
"k. c #3B5DAC",
"l. c #2F51B1",
"z. c #375BB5",
"x. c #3B62AB",
"c. c #3570A6",
"v. c #3B65B8",
"b. c #475989",
"n. c #505E89",
"m. c #415999",
"M. c #476A96",
"N. c #457798",
"B. c #527091",
"V. c #667393",
"C. c #425FA7",
"Z. c #4565A9",
"A. c #4775A5",
"S. c #5573AE",
"D. c #4569B9",
"F. c #4973BA",
"G. c #5376B8",
"H. c #647CA5",
"J. c #375BC5",
"K. c #3D67C6",
"L. c #3D65D3",
"P. c #3879D6",
"I. c #3F70E0",
"U. c #446CC7",
"Y. c #4975C7",
"T. c #547AC7",
"R. c #436DD5",
"E. c #4977D8",
"W. c #537ADA",
"Q. c #4878E3",
"!. c #5273E3",
"~. c #34809A",
"^. c #50839D",
"/. c #4C89AB",
"(. c #5994AD",
"). c #5189B1",
"_. c #5999B7",
"`. c #6D90AD",
"'. c #698BB5",
"]. c #6899B7",
"[. c #779BB6",
"{. c #5BAABA",
"}. c #64A5B9",
"|. c #72ACBE",
" X c #5686C9",
".X c #4B8CD4",
"XX c #5686D8",
"oX c #5998DA",
"OX c #6896CA",
"+X c #6496DB",
"@X c #5DA9C9",
"#X c #6AA9C5",
"$X c #78AAC5",
"%X c #6AB7C7",
"&X c #78B9CA",
"*X c #6DAAD8",
"=X c #6BB3D4",
"-X c #78B9D3",
";X c #4D89E4",
":X c #578AE5",
">X c #5997E8",
",X c #638CE6",
"<X c #689AE8",
"1X c #6E9DEA",
"2X c #5DA8EB",
"3X c #66AAE9",
"4X c #76AAEA",
"5X c #69B5EB",
"6X c #76B7EA",
"7X c #71A7F2",
"8X c #68B5F2",
"9X c #77B7F1",
"0X c #78C6CD",
"qX c #7BC8D7",
"wX c #7DD4D9",
"eX c #6CC6EC",
"rX c #79CAE9",
"tX c #71C8F1",
"yX c #77C8F4",
"uX c #8797C0",
"iX c #88A8CA",
"pX c #87B8CB",
"aX c #96B3CC",
"sX c #87ABD9",
"dX c #85BCD7",
"fX c #97BBD7",
"gX c #8BB7EC",
"hX c #87C6D9",
"jX c #96C7DA",
"kX c #91CCD9",
"lX c #87D4DC",
"zX c #A6D0DC",
"xX c #87E1DF",
"cX c #88C9E8",
"vX c #98C9E6",
"bX c #89D5E4",
"nX c #97D7E8",
"mX c #8AC6F2",
"MX c #94C9F4",
"NX c #8BD5F3",
"BX c #96DAF2",
"VX c #A9CAE8",
"CX c #A6D8E8",
"ZX c #B7D8E9",
"AX c #A8DDF4",
"SX c #B6DCF4",
"DX c #98E3ED",
"FX c #A5E6EE",
"GX c #B4E5ED",
"HX c #A9E6F4",
"JX c #B7E9F6",
"KX c #B7F4FB",
"LX c #C4DEF1",
"PX c #C6EAF7",
"IX c #CAF2F9",
/* pixels */
", @ $ , , , % $ $ % % % % a , , f p p f p G @.%.$.=.=.$.} $.R W &.H S @.} ` #.;.#.b.w.} $.J R E y y p < t < < < r f : 0 s t s < ",
"$ e a $ $ # % , % % % f , , r y e p I G G @.%.w.*.` ;.,.=.:.&.{ o.{ &.` B.'.H.i.0.6.w.>.;.;.%.$.D U p 9 d t i 0 < = s s 0 i 0 0 ",
"$ e a , a a % a a $ , r r d t p p U Q @.G J 0.w.;.7.-.9.*.H J G T &.b b.B.y.'.F.g.x.a.x.u.0.*.J ! <.U K p w d 9 1 0 s 1 y q i 0 ",
"$ # e f a , a , , > > > t d p p U Q Q $.$.*.y.0.;.;.#.q.>.>.>.1.p.N.p.H.+.2.u.OXU.v.v.D.F.x.*.w.$.&.@.p 9 i D 9 0 q i y : p I 0 ",
"$ $ e , # > , , e e , a p p p G J Q %.w.w.y.q.a.A./.(.{.@X{.{.{.%XwX0XwX{./.c.oX4XE.Y.E.E.U.q.7.$.J Q G G p i U K s 9 t K ! K i ",
"$ # a a , $ , > e p f @.y G G @.Q %.,.y.y.s._.0XlXnXnXlXwXwX0XwX0XwXbXFXDXqX=X=XvXXXU.>X:XF.a.6.;.] $.&.Q J D D w A p i p ! i p ",
"$ , , # > , a r e p p @.U G G Q $.;.7.a._.qXDXKXKXCXlX0X0X|.|.%X%X%XlXlXGXJXHXFXBX=X XE.W.XXz.t.6.y.,.%.} Q I P P A u L 9 S I i ",
"e a , , , # O t f p G G $.$.@.#.$.` ^.%XkXIXIXFXqX(.N.>.#.b #.~.~.(.`.N.^.iXjXbXnXFXnX=X.XXXT.k.a.i.7.` -.:.$.R ! I F L A P I w ",
", % % > e a f p p G J J %.,.,.:.M.N.jXZXPXPXkX^.#.k g g h z g b.B.n.&.c k M ' M.|.vXAXAXcXoX XT.D.x.h.a.6.;.$.J W W S F F P L A ",
"% $ > r a e p p G Q $.>.0.M.,.s.|.aXLXIXzX}.4.m h z 8 z z k v j C 4 4 v C C M M ' M.pXnXAXcX@X XU.D.j.h.6.y.;...X.{ F Y Y A F L ",
"# % % r r r 9 p G Q >.p.u.a.c.-XjXZXPXfXN.' 5 n v h 5 h 5 h h 5 4 h z h j v v V m ~ 8.].qXbXhX=X XK.x.h.u.u.9.7.*.W J R &.R A A ",
", e > r 1 f G @.U $.>.0.G.F.-XCXZXLXpXs.N l v h k 5 h 5 5 5 5 l T h h h x k j m m ( ( +./.0XnXkX*XU.k.S.y.6.5.e.5.:.X.{ W P K K ",
"% e e p y f @.G } *.+.4.OXhXnXZXZXdXN.H v v h h h 5 h 5 5 3 5 7 Z 5 l x j j j N m V C _ *./.hXCXlX_.l.z.f.9.6.6.5.-.X.| F L P E ",
"# e s r y G G *.;.t.u.S.nXGXjXhX{.a.H j z j h h h 5 h 3 5 3 3 3 2 2 h h x j j j m k j v j O.].zXCXhXv.z.z.j.e.e.5.*.X.X.Q W R A ",
"r f s y p @.%.i.F. X+X+XJXJXfX#Xp./ V v k h h h j z 5 3 3 3 3 3 5 5 n Z g h l N m m m j n 4 w.aXZXGX=Xz.j.h.l.e.2.O...:.W { P D ",
"e > e @.J J 5.F.:X+X+X9XGXVXiX^.-.m V x j j h h l h 3 3 3 3 3 ; 2 T n n 5 h h j k k j j v g { [.jXzXnX@Xf.f.j.e.r.6.+.=.&.o.| P ",
"r p p G Q #.a.XX>XgX3XBXCXiX'.M.[ B V N N x x l 5 2 3 2 ; ; ; * ; 3 2 ; 3 5 5 h h h j h h v 4 >.].hXzXzX).l.l.g.e.6.+.-.-. .X.E ",
"r y p @.$.>.D.8X2XmXBXBXiXuXH.3.^ B B N Z C g l 7 7 ; ; ; & & ; - * ; ; 3 3 5 5 h h l h h h h g >.].zXLXMX).l.l.e.6.5.-.-.8.O.W ",
"r p p $.*.;.F.2X7XmXmXgXsX'.m./ B B B N V V h 5 7 n & ; & & + + + & ; * ; ; 3 5 3 5 l h n x h z 2 B.pXzXJX6Xd.v.T.r.r.8.3.+.n.&.",
"r U G $.;.t.v.>XNXgX8XMXsXC.( ^ / B B N c T l 2 2 3 & + + + o + + + + + * * ; ; 3 5 5 h l l h z 2 i `.pXGXBX.XU.K.z.h.r.5.:.n.! ",
"9 p &...>.c.U.7XgX8X9XgXOX3.^ / B B B N N l 5 3 ; & & + + o o o o o o + + + * - ; 3 3 5 5 h 5 g z 2 ,.}.zXIXdXoXoXv.f.i.y.7...{ ",
"y p @.,.u.F.E.+XgX3XMXsXr.~ / B B B N x l h 3 3 & & + o o . o o o . . o o o + * ; ; 3 3 3 3 3 5 6 6 n B.0XIXFX2X9X+Xz.Z.C.y.+.:.",
"y p Q 0.0.D.F.T.7X+XfXOX~ / B B B N N x l 5 3 - + + o . . . . . . . . . o o + + * & ; ; 3 5 5 5 5 6 4 =.}.GXGX.X>X9XT.h.h.Z.9.q.",
"y G J *.-.u.U.,X,X+XfXG.~ / B B B N N l 5 3 7 0 o + O . .   . #     . . . . o o + & & ; 3 3 2 5 5 5 7 g ^.zXPX*X.X9XXXl.z.k.y.5.",
"y @.J $.q.5.j.1Xv.OXiXw.~ V B N m m h h 3 3 7 0 o + $   .     X         . . . o o & * ; ; 2 z 7 5 h z g >.pXPXcXoX5XoXj.j.h.w.w.",
"f U G J O.5.Z.Z.c.$XuX_ N / B N m j h 5 3 ; & o o . . .                   . . o o + & & ; 3 Z z 5 h v j _ #XSXBX5XoX>X Xl.i.9.b.",
"9 D G J %.-.m.t.c.$X'.( j V N x x h 5 5 ; * & + : O #                         . o o + & - 3 ; 5 h h j v ^ /.AXAXeX3X3X;XU.h.y.5.",
"y p S Q &.+.7.q.(.}.H.C j V j j j 5 5 3 ; & + . O .                               o + & ; 3 5 5 h x N b ~ c.vXJXeX2X2X>X XC.Z.=.",
"y y F F ` } O.N.{.}.B.h j j l h 5 5 3 3 - + o o                               O O + + & - ; 5 h l j N C ^ 4.vXPXcX2X8X3XE.x.u.8.",
"e y F W }  .=._.#X(.B.4 v h 5 5 5 3 3 ; & + o . .                             O O o + + & - 5 h j j j V N 4.qXPXBXtXrX5XW.z.j.h.",
"1 y S } ..H ` _.#X`.<.- z 5 5 5 5 3 3 * & o o .     X .                           o + + ; n 7 v j m m C N 4.6XIXKXrXeX2X;XT.x.x.",
"> y S W } H %.#X$X(.,.& 7 5 5 5 3 3 - & + o . .                                 . o o + * Z h j j m m ( M 0.kXKXDXeXeX2XW. Xv.Z.",
"< d K W ..-.p.%X|.(.$.& 7 5 5 3 5 q & & * o . .                       X         . o + & ; 2 5 j N m ^ ( M a.hXJXMXeXeX8XQ.Y.v.u.",
"r u P }  .[ a.-X|.}.B.2 7 5 3 5 3 ; - * 0 o . .                             #   . o + & ; 5 h j N B / ( M A.dXJXHXeXeX8X>XE.D.r.",
"y < F W W +.M.hXhXiX^.5 6 5 5 2 3 ; ; & & o .       X X                     X   . o 0 & 2 5 h j N B ^ ( ~ A.cXSXJXtXrXeX:XR.D.S.",
"1 y i u  .8.A.qX&XpXB.g 6 6 5 5 5 ; ; * + o . .     a #                       . o o : * 3 5 h N B B / / ~ /.MXHXNXtXtX2XQ.Y.z.Z.",
"9 p S A | i.G.hXhX$X^.5 6 5 5 5 5 3 - & * o o . X   .                         X o + & ; 5 5 j N B B / ^ )  XvXcX8XtX8X>X;XY.Y.x.",
"1 u P F =.m.x.nXGX|.(.Q 4 z 5 7 2 2 ; * & o o . . .                           . + O & ; ; 5 x N B ^ / ^ 5.#XnX3X8XtX8X>X>XT.Z.x.",
"y U G W ,.9.f.BXKXdX}.,.2 z h 5 n n 2 * & + o . . O O                       . + O : & 3 n j j B ^ / / ^ c.-XvXoX2XyX8X;X>XY.v.i.",
"K K H J =.y.D.-XKXGX%XN.5 v h 5 T Z ; ; & & + o . o @                       X = o + & 3 [ x j N B / ^ ] /.dXfX;X8XtXeX5X>XE.k.i.",
"D 8 Q ` ..w.Y. XDXKXvX(.[ h v h 3 3 3 ; * * + + o .     X .           .   . . o + & - 3 j x N B ^ ( ^ t.#XzXgXoX8X8X3X6XoXY.x.Z.",
"U Q W } *.t.D.Y.bXFXJXpXw.j v j l 5 3 3 ; * * + o . . . .           .   . . . o + & - 3 5 j N B B ( ~ A.-XvX5X3X8X6X5X<XXXF.i.m.",
"D R } ` q.u.Z.U.4XHXPXZX(._ j v h h 3 3 ; * + * + o . . . . . . .   . . . o . + & * ; 3 5 j m B ^ B 3._.cXcX5X9X8X3X3X;XK.C.Z.8.",
"U G W *.6.r.r.l.Y.HXIXLXiXw.N v j h 5 3 ; & q q o + o . . . . . . . . o . + * + & ; 3 3 h h N N V ~ a.=XcXcX4XgX7X4X:XP.D.C.y.B.",
"E G } -.e.u.x.f.z.6XCXSXCXS.[ h z h 5 3 3 ; 7 * + + + o o o . o o o o o o & q + & ; 3 5 l h N V m ' _.cXNX6XgXgX2X4XXXR.Y.C.r.m.",
"U G ` -.u.j.u.v.K.U.hXGXZX[.b.v 5 5 5 5 3 ; & * * + + + o + o o o + + + + + & * - ; 3 3 l j j b M /.rXbXNXgXgX7X<X<XXXU.Z.h.7.y.",
"U J } $.=.0.x.v.J.z.@XHXLXiX'.b.v 7 5 n 7 3 3 ; & & & + + & + + + + & & * & & ; ; 2 3 5 h h v g a.-XlXNXmX4X>X,X:X:XXXk.j.u.8.+.",
"F W J } -.q.x.G.R.J.v.hXSXdX/.M.T + 7 q 2 3 ; ; ; - & & & & & & * ; ; * * ; ; ; ; 3 3 5 h z h _ #XlXbXnX1XXX:X>XQ.:XE.z.h.9.b.%.",
"J W ` ` ;.-.6.F.U.U.K.OXCXvXfX`.1.1.0 & q ; ; ; 3 ; ; ; ; ; ; ; ; 3 3 ; 2 ; 3 3 3 5 2 h n n M ^.hXlXAXsXE.>X:XXX:X;XR.g.Z.m.8.o.",
"W W ;...5.] x.D.f.v.W..XMXCXPXzXN.V.V.X 3 7 3 ; ; 2 3 3 2 2 2 5 3 3 3 3 3 3 3 3 2 2 6 6 2 4 0.&XcXnXcX XW.:X:X:X;XW.U.k.y.y.-. .",
"R P J *.O.] A.F.v.K.oX:X9XAXJXzX~.$.`.[.3 ; 3 2 3 3 3 3 3 3 5 5 3 5 5 5 5 5 5 3 C P 2 k %.s.{.cXSXAX3XY.W.Q.E.E.K.D.D.k.y.+.[ :.",
"9 Y S +. ...O.5.x.Y.+X<X1XcXKXIX0X}.1.[.&.* ; : 3 3 2 3 3 5 5 5 5 h h l h 5 5 5 Z c } p.}.kXvXZXSX9XE.!.XXL.XXT.U.x.f.8.8.X.<.o.",
"i S S Q Y } ..5.e.f.v.1XgX3XcXIXHXlX|.pXB.@.8 & ; 5 6 5 h 5 v c h h z j z z 6 h g 9.).}.jXZXZXSX6X;XL.!.W.R.U.D.T.r.9.-. .{ o.T ",
"i w E E w F W +.q.j.D.W.9X7X XGXIXGXxXGXpX|.b.J 8 4 5 z n k n Z h v v z l 4 4 ` M.#X#XdXCXSXZXsXXXR.L.R.XXY.l.D.r.8.+.o.:.:.E T ",
"u F R F S S F F X.5.m.F.:X7X:XsXLXIXKXlXlXkXiX`.'.M.M g 4 4 g g N x k g g _ B.).@X%XjXvXnXVXaXT.U.J.W.U.T.F.l.S.m.+.O.:.<.<.W Y ",
"S S S w S 9 F U Q O.+.y.D.G.T.f.^.aXGXKXwXlXbX-X#X].N.;.;.=.O.+.O.*.>.y.H.}.iX&X&XvXnXnXVXfXOXz.D.D.U.Y.z.C.C.m.8.+. .[ C T E P ",
"u u S K 8 9 A ` J ..] =.q.w.5.8.3.' ].VXCXbXrXqX0X%X=X@X#X$X'._._.OX$X$XiXpX-XhXNXBXvXgXMX1X XT.C.K.z.j.j.w.-. .+.o.H { o.E L ! ",
"u A F A 8 i F F W  .` O... .-. .<.b.' D.dXvXvXnXNXDXNX0XqXvXcXgXdXfXfXfXjXnXFXHXHXSXVXgX1XR.J.F.l.r.u.5.y.+.| o.:.o.P n E L I ! ",
"u A u u A A n S F J W { H :.| H H _ +.5.D.+XMXMXNXNXBXnXbXAXHXSXSXSXZXPXJXHXJXJXSXMX4X+XU.U.z.e.m.b.7.:.:.| T | ! E Y E s Z L ! ",
"8 D n u A w w A u S S H R W Y H { [ O.8.r.D.XX:X>X2X3XrXcXBXBXAXSXSXKXJXBX9X7X>X4XQ.R.U.U.T.D.r.8.3.X.{ T Y E L P L L L L L i 0 ",
"y 9 8 8 w A w w w F P D W H P H H { X.8.r.g.J.L.K.E.>X2X8X9X8X>X>X8X2XR.L.Q.!.L.R.!.R.K.R.v.Z.h.8.{ | T ! ! Z L L i L i s 0 w i ",
"y 9 u y 1 9 8 y u i P n P F A w ! W { -.5.f.U.L.L.P.;X:X>X:XI.Q.,X!.!.!.XX,XW.T.U.U.K.D.K.j.i.Z.m.X.Y W E L E E n L L L s L < 0 ",
"K 9 y K 9 : 9 < y w i 0 i P u w ! I n { +.7.k.z.K.K.L.E.;X>XQ.Q.:X,XsX7X1X<XU.U.F.l.k.j.t.r.9.8.+.X.W E Z i L ! ! s L s L L s 0 ",
"y 9 1 y 9 : 1 9 9 1 9 w K A i q 8 w u E H O.6.6.e.v.L.E.Q.>X:X:X<X7X1X,X,Xl.C.f.j.r.y.9.:.w.7.o.| W E E ! E i L s q q s s L i : "
};
